<svg width="40" height="40" viewBox="0 0 40 40" fill="none" xmlns="http://www.w3.org/2000/svg">
<rect width="40" height="40" rx="8" fill="white"/>
<path d="M9.50853 25C8.76326 25 8.05579 24.899 7.38613 24.697C6.71646 24.495 6.12781 24.1768 5.62016 23.7424C5.12331 23.298 4.72907 22.7374 4.43744 22.0606C4.14581 21.3737 4 20.5455 4 19.5758V19.2727C4 18.3434 4.14581 17.5455 4.43744 16.8788C4.72907 16.2121 5.12331 15.6667 5.62016 15.2424C6.12781 14.8182 6.71646 14.5051 7.38613 14.303C8.05579 14.101 8.76326 14 9.50853 14C10.2538 14 10.9613 14.101 11.6309 14.303C12.3006 14.5051 12.8839 14.8182 13.3807 15.2424C13.8884 15.6667 14.288 16.2121 14.5796 16.8788C14.8713 17.5455 15.0171 18.3434 15.0171 19.2727V19.5758C15.0171 20.5455 14.8713 21.3737 14.5796 22.0606C14.288 22.7374 13.8884 23.298 13.3807 23.7424C12.8839 24.1768 12.3006 24.495 11.6309 24.697C10.9613 24.899 10.2538 25 9.50853 25ZM9.50853 22.7273C9.83257 22.7273 10.1458 22.6818 10.4482 22.5909C10.7507 22.4899 11.0153 22.3232 11.2421 22.0909C11.4689 21.8485 11.6525 21.5253 11.793 21.1212C11.9334 20.7172 12.0036 20.202 12.0036 19.5758V19.2727C12.0036 18.6869 11.9334 18.202 11.793 17.8182C11.6525 17.4242 11.4689 17.1162 11.2421 16.8939C11.0153 16.6616 10.7507 16.5 10.4482 16.4091C10.1458 16.3182 9.83257 16.2727 9.50853 16.2727C9.1845 16.2727 8.87127 16.3182 8.56884 16.4091C8.26641 16.5 8.00179 16.6616 7.77497 16.8939C7.54814 17.1162 7.36453 17.4242 7.22411 17.8182C7.0837 18.202 7.01349 18.6869 7.01349 19.2727V19.5758C7.01349 20.202 7.0837 20.7172 7.22411 21.1212C7.36453 21.5253 7.54814 21.8485 7.77497 22.0909C8.00179 22.3232 8.26641 22.4899 8.56884 22.5909C8.87127 22.6818 9.1845 22.7273 9.50853 22.7273Z" fill="#303633"/>
<path d="M16.0626 14.197H18.9789V18.3939H19.7889L23.2561 14.197H26.4316L22.0572 19.1515L26.5936 24.803H23.1913L19.7889 20.303H18.9789V24.803H16.0626V14.197Z" fill="#303633"/>
<path d="M31.0585 25C30.2808 25 29.568 24.904 28.9199 24.7121C28.2719 24.5101 27.7156 24.1919 27.2512 23.7576C26.7975 23.3232 26.4411 22.7626 26.1819 22.0758C25.9226 21.3889 25.793 20.5505 25.793 19.5606V19.2727C25.793 18.3434 25.928 17.5455 26.1981 16.8788C26.4681 16.2121 26.8407 15.6667 27.316 15.2424C27.7912 14.8182 28.3475 14.5051 28.9847 14.303C29.6328 14.101 30.3241 14 31.0585 14C31.7174 14 32.333 14.0707 32.9055 14.2121C33.4888 14.3535 33.9964 14.5758 34.4284 14.8788C34.8713 15.1818 35.2277 15.5758 35.4978 16.0606C35.7786 16.5455 35.946 17.1364 36 17.8333H32.9865C32.9325 17.5505 32.8461 17.3131 32.7273 17.1212C32.6085 16.9192 32.4627 16.7576 32.2898 16.6364C32.117 16.5051 31.9226 16.4141 31.7066 16.3636C31.5014 16.303 31.2853 16.2727 31.0585 16.2727C30.7345 16.2727 30.4321 16.3283 30.1512 16.4394C29.8812 16.5404 29.6436 16.7121 29.4384 16.9545C29.2439 17.1869 29.0873 17.4949 28.9685 17.8788C28.8605 18.2626 28.8065 18.7273 28.8065 19.2727V19.5909C28.8065 20.1768 28.8659 20.6717 28.9847 21.0758C29.1143 21.4697 29.2817 21.7929 29.487 22.0455C29.6922 22.2879 29.9298 22.4646 30.1998 22.5758C30.4699 22.6768 30.7561 22.7273 31.0585 22.7273C31.6094 22.7273 32.0468 22.6061 32.3708 22.3636C32.7057 22.1111 32.9109 21.7121 32.9865 21.1667H36C35.9568 21.8737 35.8002 22.4697 35.5302 22.9545C35.2709 23.4394 34.9199 23.8333 34.4771 24.1364C34.045 24.4394 33.5374 24.6616 32.9541 24.803C32.3708 24.9343 31.739 25 31.0585 25Z" fill="#303633"/>
</svg>
