<svg  xmlns="http://www.w3.org/2000/svg">
	<symbol id="phone" viewBox="0 0 24 24" fill="none"><path d="M5.74 5.29c.4-.4.77-.54 1.14-.54.12 0 .23.03.32.07h.01c.1.05.17.11.24.2l1.43 2.02 1.93 2.2.02-.04a1.83 1.83 0 0 0 .1-1.72c-.1-.24-.23-.47-.4-.7L8.68 4.15a2.05 2.05 0 0 0-.84-.7c-.3-.14-.64-.21-.96-.21a3.1 3.1 0 0 0-2.19.96c-.5.47-.86 1-1.1 1.6a4.88 4.88 0 0 0-.34 1.82c0 .95.22 1.92.64 2.9v.01a15 15 0 0 0 1.65 2.87c.7.97 1.47 1.87 2.31 2.71.85.84 1.76 1.62 2.72 2.32.95.7 1.92 1.25 2.9 1.67 1 .42 1.97.64 2.9.64.66 0 1.28-.12 1.86-.36a4.36 4.36 0 0 0 2.25-2.13c.18-.39.27-.8.27-1.2 0-.34-.07-.63-.18-.9v-.01l-.01-.01c-.15-.35-.4-.62-.7-.83l-2.65-1.88a3.84 3.84 0 0 0-.7-.39c-.26-.1-.52-.16-.78-.16-.35 0-.66.1-.94.27a2.6 2.6 0 0 0-.35.23l.99 1.13a.87.87 0 0 1 .08-.04l.02-.02h.02a.32.32 0 0 1 .18-.07c.04 0 .1.01.2.05.12.05.25.12.42.23L19 16.54c.11.08.16.14.18.2.05.12.07.22.07.32 0 .18-.04.37-.13.56A2.86 2.86 0 0 1 17.66 19c-.4.15-.82.24-1.28.24-.7 0-1.47-.16-2.32-.52-.86-.37-1.74-.87-2.6-1.5a22 22 0 0 1-4.7-4.69 13.51 13.51 0 0 1-1.5-2.58 5.98 5.98 0 0 1-.51-2.33c0-.45.08-.88.23-1.26.16-.39.4-.74.74-1.07h.01v-.01Z" fill="currentColor"/><path d="m14.06 13.72-.28.27 1.14.98.19-.19c.13-.13.23-.21.32-.27l-1-1.13c-.13.1-.25.22-.37.34Z" fill="currentColor"/><path d="M10.4 11.22c-.16-.19-.3-.35-.4-.5L8.6 9.5c-.24.24-.35.54-.35.84 0 .14.02.26.05.37v.04l.02.04.05.11v.03l.03.06.03.06c.18.33.46.72.83 1.15.37.43.77.86 1.2 1.3v.01c.45.43.88.84 1.32 1.21.44.38.83.65 1.17.83l.04.02.03.01h.01l.03.02.1.04.02.01c.18.07.34.08.47.08.34 0 .63-.13.85-.35l.42-.4-1.14-1-.2.2c-.2-.11-.48-.3-.83-.6a23.28 23.28 0 0 1-2.35-2.36Z" fill="currentColor"/><path d="m9.8 10.41.47-.5c.21-.2.4-.43.54-.67l-1.93-2.2.43.6a2 2 0 0 1 .24.41v.01c.04.1.05.17.05.2 0 .04 0 .1-.06.17v.02c-.07.11-.18.25-.33.41l-.01.01-.6.63 1.4 1.22a4.28 4.28 0 0 1-.2-.3Z" fill="currentColor"/><path fill-rule="evenodd" clip-rule="evenodd" d="M13.25 4c0-.41.34-.75.75-.75A6.75 6.75 0 0 1 20.75 10a.75.75 0 0 1-1.5 0c0-2.9-2.35-5.25-5.25-5.25a.75.75 0 0 1-.75-.75Zm0 3c0-.41.34-.75.75-.75 1.02 0 1.94.63 2.55 1.3.34.36.63.78.84 1.18.2.4.36.84.36 1.27a.75.75 0 0 1-1.5 0c0-.09-.04-.29-.2-.58a3.9 3.9 0 0 0-.6-.85c-.49-.53-1.03-.82-1.45-.82a.75.75 0 0 1-.75-.75Z" fill="currentColor"/></symbol>
	<symbol id="mail" viewBox="0 0 24 24" fill="none"><path fill-rule="evenodd" clip-rule="evenodd" d="M2.38 4.63a3 3 0 0 1 2.12-.88h15a3 3 0 0 1 3 3v10.5a3 3 0 0 1-3 3h-15a3 3 0 0 1-3-3V6.75a3 3 0 0 1 .88-2.12ZM3 6.75v.24a1.5 1.5 0 0 0 .71 1.28l7.5 4.62a1.5 1.5 0 0 0 1.58 0l7.5-4.62A1.5 1.5 0 0 0 21 6.99v-.24a1.5 1.5 0 0 0-1.5-1.5h-15A1.5 1.5 0 0 0 3 6.75Zm18 2.84-7.43 4.57a3 3 0 0 1-3.14 0L3 9.6v7.66a1.5 1.5 0 0 0 1.5 1.5h15a1.5 1.5 0 0 0 1.5-1.5V9.59Z" fill="currentColor"/></symbol>
	<symbol id="hero-1" viewBox="0 0 84 84" fill="none" xmlns="http://www.w3.org/2000/svg"><path d="M54.047 54.935H29.953c-8.623 0-11.245-2.622-11.245-11.245V29.953c0-8.623 2.622-11.245 11.245-11.245h24.072c8.623 0 11.245 2.622 11.245 11.245v13.715c.022 8.645-2.6 11.267-11.223 11.267ZM29.953 21.958c-6.803 0-7.995 1.192-7.995 7.995v13.715c0 6.804 1.192 7.995 7.995 7.995h24.072c6.803 0 7.995-1.191 7.995-7.995V29.953c0-6.803-1.192-7.995-7.995-7.995H29.953Z" fill="#0B2A30"/><path d="M42 65.29a1.637 1.637 0 0 1-1.625-1.626V53.308c0-.889.737-1.625 1.625-1.625s1.625.736 1.625 1.625v10.356c0 .889-.737 1.626-1.625 1.626Zm21.667-19.498H20.333a1.637 1.637 0 0 1-1.625-1.625c0-.889.737-1.625 1.625-1.625h43.334c.888 0 1.625.736 1.625 1.625 0 .888-.737 1.625-1.625 1.625Z" fill="#0B2A30"/><path d="M51.75 65.292h-19.5a1.637 1.637 0 0 1-1.625-1.625c0-.889.737-1.625 1.625-1.625h19.5c.888 0 1.625.736 1.625 1.625 0 .888-.737 1.625-1.625 1.625Z" fill="#0B2A30"/><rect x=".5" y=".5" width="83" height="83" rx="41.5" stroke="#EEE" stroke-linecap="round"/></symbol>
	<symbol id="hero-2" viewBox="0 0 84 84" fill="none" xmlns="http://www.w3.org/2000/svg"><path fill-rule="evenodd" clip-rule="evenodd" d="M28.634 22.04c3.505-1.753 8.233-2.79 13.366-2.79 5.133 0 9.861 1.037 13.366 2.79 3.407 1.703 6.134 4.358 6.134 7.773v24.375c0 3.414-2.727 6.069-6.134 7.773C51.861 63.713 47.133 64.75 42 64.75c-5.133 0-9.861-1.037-13.366-2.79-3.407-1.703-6.134-4.358-6.134-7.773V29.814c0-3.415 2.727-6.07 6.134-7.774ZM25.75 35.754v2.182c0 1.521 1.275 3.336 4.337 4.867C33.052 44.286 37.262 45.25 42 45.25s8.948-.964 11.913-2.446c3.062-1.531 4.337-3.346 4.337-4.867v-2.182a15.816 15.816 0 0 1-2.884 1.83c-3.505 1.753-8.233 2.79-13.366 2.79-5.133 0-9.861-1.037-13.366-2.79a15.82 15.82 0 0 1-2.884-1.83Zm32.5 8.125a15.816 15.816 0 0 1-2.884 1.83C51.861 47.464 47.133 48.5 42 48.5c-5.133 0-9.861-1.037-13.366-2.79a15.82 15.82 0 0 1-2.884-1.83v2.182c0 1.521 1.275 3.336 4.337 4.867 2.965 1.482 7.175 2.446 11.913 2.446s8.948-.964 11.913-2.446c3.062-1.531 4.337-3.346 4.337-4.867V43.88Zm0 8.125a15.816 15.816 0 0 1-2.884 1.83c-3.505 1.753-8.233 2.79-13.366 2.79-5.133 0-9.861-1.037-13.366-2.79a15.82 15.82 0 0 1-2.884-1.83v2.182c0 1.521 1.275 3.336 4.337 4.867C33.052 60.536 37.262 61.5 42 61.5s8.948-.964 11.913-2.446c3.062-1.531 4.337-3.346 4.337-4.867v-2.182Zm-32.5-22.193c0-1.52 1.275-3.335 4.337-4.866C33.052 23.464 37.262 22.5 42 22.5s8.948.964 11.913 2.446c3.062 1.531 4.337 3.346 4.337 4.866 0 1.521-1.275 3.336-4.337 4.867-2.965 1.482-7.175 2.446-11.913 2.446s-8.948-.964-11.913-2.446c-3.062-1.531-4.337-3.346-4.337-4.867Z" fill="#0B2A30"/><rect x=".5" y=".5" width="83" height="83" rx="41.5" stroke="#EEE" stroke-linecap="round"/></symbol>
	<symbol id="hero-3" viewBox="0 0 84 84" fill="none" xmlns="http://www.w3.org/2000/svg"><path d="M42 65.316c-2.362 0-4.702-.694-6.543-2.059l-9.317-6.955c-2.47-1.841-4.398-5.698-4.398-8.753v-16.12c0-3.337 2.448-6.89 5.59-8.06l10.811-4.052c2.145-.802 5.525-.802 7.67 0l10.812 4.052c3.142 1.17 5.59 4.723 5.59 8.06v16.098c0 3.077-1.928 6.912-4.398 8.754L48.5 63.236c-1.798 1.386-4.138 2.08-6.5 2.08Zm-2.708-42.944L28.48 26.424c-1.842.693-3.467 3.033-3.467 5.027v16.098c0 2.058 1.452 4.94 3.077 6.153l9.317 6.955c2.491 1.864 6.695 1.864 9.208 0l9.317-6.955c1.646-1.235 3.076-4.095 3.076-6.153v-16.12c0-1.972-1.625-4.312-3.466-5.027L44.73 22.35c-1.473-.52-3.987-.52-5.438.022Z" fill="#0B2A30"/><path d="M42 51.208c-5.677 0-10.292-4.615-10.292-10.291 0-5.677 4.615-10.292 10.292-10.292s10.292 4.615 10.292 10.292c0 5.676-4.615 10.291-10.292 10.291Zm0-17.333c-3.878 0-7.042 3.163-7.042 7.042 0 3.878 3.164 7.041 7.042 7.041 3.878 0 7.042-3.163 7.042-7.041 0-3.879-3.164-7.042-7.042-7.042Z" fill="#0B2A30"/><path d="M39.833 44.713a1.634 1.634 0 0 1-1.386-.78c-.455-.78-.217-1.777.563-2.232l1.647-.997a.535.535 0 0 0 .26-.455v-2.015c0-.888.736-1.625 1.625-1.625.888 0 1.625.715 1.625 1.604v2.015a3.82 3.82 0 0 1-1.842 3.25l-1.668.996c-.239.174-.542.239-.824.239Z" fill="#0B2A30"/><rect x=".5" y=".5" width="83" height="83" rx="41.5" stroke="#EEE" stroke-linecap="round"/></symbol>
	<symbol id="hero-4" viewBox="0 0 84 84" fill="none" xmlns="http://www.w3.org/2000/svg"><path d="M42 50.125A8.128 8.128 0 0 1 33.875 42 8.128 8.128 0 0 1 42 33.875 8.128 8.128 0 0 1 50.125 42 8.128 8.128 0 0 1 42 50.125Zm0-13A4.882 4.882 0 0 0 37.125 42 4.882 4.882 0 0 0 42 46.875 4.882 4.882 0 0 0 46.875 42 4.882 4.882 0 0 0 42 37.125Z" fill="#0B2A30"/><path d="M48.955 64.078c-.455 0-.91-.065-1.365-.173a5.32 5.32 0 0 1-3.185-2.405l-.26-.433c-1.278-2.21-3.033-2.21-4.312 0l-.238.411c-.715 1.214-1.842 2.08-3.185 2.427a5.072 5.072 0 0 1-3.965-.542l-3.727-2.145a5.742 5.742 0 0 1-2.123-7.843c.628-1.105.802-2.102.433-2.73-.368-.628-1.3-.997-2.578-.997a5.752 5.752 0 0 1-5.742-5.741v-3.814a5.752 5.752 0 0 1 5.742-5.741c1.278 0 2.21-.369 2.578-.997.369-.628.217-1.625-.433-2.73a5.767 5.767 0 0 1-.563-4.355 5.59 5.59 0 0 1 2.686-3.488l3.749-2.145c2.448-1.452 5.676-.607 7.15 1.885l.26.433c1.278 2.21 3.033 2.21 4.311 0l.239-.412c1.473-2.513 4.701-3.358 7.171-1.885l3.727 2.145a5.742 5.742 0 0 1 2.123 7.844c-.628 1.105-.801 2.101-.433 2.73.368.628 1.3.996 2.578.996a5.752 5.752 0 0 1 5.742 5.742v3.813a5.752 5.752 0 0 1-5.742 5.742c-1.278 0-2.21.368-2.578.997-.368.628-.217 1.625.433 2.73a5.67 5.67 0 0 1 .564 4.355 5.59 5.59 0 0 1-2.687 3.488l-3.748 2.145a5.392 5.392 0 0 1-2.622.693ZM42 56.062c1.928 0 3.727 1.213 4.962 3.358l.238.412c.26.455.693.78 1.213.91.52.13 1.04.065 1.474-.195l3.748-2.167a2.506 2.506 0 0 0 .932-3.402c-1.235-2.123-1.387-4.311-.434-5.98.954-1.668 2.925-2.621 5.395-2.621a2.478 2.478 0 0 0 2.492-2.492v-3.813a2.492 2.492 0 0 0-2.492-2.492c-2.47 0-4.441-.953-5.395-2.622-.953-1.668-.801-3.856.434-5.98a2.476 2.476 0 0 0 .238-1.885 2.534 2.534 0 0 0-1.148-1.516l-3.749-2.145a1.992 1.992 0 0 0-2.73.715l-.238.411c-1.235 2.145-3.033 3.359-4.962 3.359-1.928 0-3.726-1.214-4.961-3.359l-.239-.433a1.989 1.989 0 0 0-2.686-.693l-3.749 2.166A2.507 2.507 0 0 0 29.412 29c1.235 2.123 1.386 4.312.433 5.98-.953 1.668-2.925 2.622-5.395 2.622a2.478 2.478 0 0 0-2.492 2.491v3.814a2.492 2.492 0 0 0 2.492 2.491c2.47 0 4.442.954 5.395 2.622.953 1.668.802 3.857-.433 5.98a2.476 2.476 0 0 0-.239 1.885c.174.65.585 1.17 1.149 1.517l3.748 2.145c.455.281.997.346 1.495.216.52-.13.953-.476 1.235-.931l.238-.412c1.235-2.123 3.034-3.358 4.962-3.358Z" fill="#0B2A30"/><rect x=".5" y=".5" width="83" height="83" rx="41.5" stroke="#EEE" stroke-linecap="round"/></symbol>
	<symbol id="hero-5" viewBox="0 0 84 84" fill="none" xmlns="http://www.w3.org/2000/svg"><path d="M31.656 45.625a12.187 12.187 0 0 1 13.189 5.073l2.132-2.608a15.438 15.438 0 0 0-27.73 9.348v.014l.003.237c.005.564.303 1.086.787 1.377a28.316 28.316 0 0 0 14.647 4.059l2.78-3.4c-.92.101-1.846.152-2.776.15h-.003a25.068 25.068 0 0 1-12.168-3.13 12.188 12.188 0 0 1 9.14-11.12Z" fill="#0B2A30"/><path d="M45.412 51.64a12.108 12.108 0 0 1 1.444 5.107 25.064 25.064 0 0 1-9.392 2.979l-2.78 3.399 14.326-3.864-2.033-11.17-2.132 2.607a12.207 12.207 0 0 1 .567.942Z" fill="#0B2A30"/><path fill-rule="evenodd" clip-rule="evenodd" d="M49.01 59.26c1.694.41 3.432.617 5.177.615V58.25l.002 1.625h-.002a21.854 21.854 0 0 0 9.644-2.228c.535-.262.884-.796.909-1.391a10.562 10.562 0 0 0-17.763-8.166l2.033 11.17Zm2.827-10.375a7.314 7.314 0 0 0-3.129 2.081 15.36 15.36 0 0 1 1.366 5.206 18.7 18.7 0 0 0 4.112.453h.004c2.504.004 4.98-.498 7.28-1.472a7.312 7.312 0 0 0-9.633-6.268ZM54.188 27.375a7.312 7.312 0 1 0 0 14.624 7.312 7.312 0 0 0 0-14.624Zm0 3.25a4.062 4.062 0 1 0 0 8.125 4.062 4.062 0 0 0 0-8.125ZM34.688 20.875a8.938 8.938 0 1 0 0 17.875 8.938 8.938 0 0 0 0-17.875Zm0 3.25a5.688 5.688 0 1 0 0 11.375 5.688 5.688 0 0 0 0-11.375Z" fill="#0B2A30"/><path d="M34.684 63.125a28.32 28.32 0 0 0 14.326-3.864l-14.326 3.864Z" fill="#0B2A30"/><rect x=".5" y=".5" width="83" height="83" rx="41.5" stroke="#EEE" stroke-linecap="round"/></symbol>
	<symbol id="arrow" viewBox="0 0 14 14" fill="none" xmlns="http://www.w3.org/2000/svg"><path d="M0 7.7h11.406l-6.031 6.23.068.07H7.22L14 7 7.22 0H5.44l-.067.069L11.406 6.3H0v1.4Z" fill="CurrentColor"/></symbol>
	<symbol id="logo-1" viewBox="0 0 132 52" fill="none" xmlns="http://www.w3.org/2000/svg"><path d="M34.471 27.09a12.384 12.384 0 0 1-5.832 5.674 12.41 12.41 0 0 1-14.97-3.53 12.362 12.362 0 0 1 0-15.357 12.409 12.409 0 0 1 14.97-3.529 12.384 12.384 0 0 1 5.832 5.674l4.549-2.273a17.461 17.461 0 0 0-8.223-8 17.496 17.496 0 0 0-11.42-1.177 17.476 17.476 0 0 0-9.686 6.153 17.43 17.43 0 0 0 0 21.654 17.476 17.476 0 0 0 9.686 6.153c3.83.903 7.855.488 11.42-1.177a17.461 17.461 0 0 0 8.223-8L34.47 27.09Z" fill="#303633"/><path d="M43.58 31.634a22.516 22.516 0 0 1-8.239 9.051 22.562 22.562 0 0 1-23.576.175 22.52 22.52 0 0 1-8.373-8.927L0 33.685a26.347 26.347 0 0 0 9.794 10.429 26.4 26.4 0 0 0 27.56-.201 26.345 26.345 0 0 0 9.64-10.57l-3.414-1.709Z" fill="#4EC275"/><path d="M68.801 27.299a5.383 5.383 0 0 1-4.785 2.744c-3.403 0-5.87-2.457-5.87-5.84s2.467-5.844 5.87-5.844a5.386 5.386 0 0 1 4.748 2.686l.207.369 1.7-.974-.211-.369a7.36 7.36 0 0 0-6.444-3.612c-4.433 0-7.796 3.32-7.796 7.726 0 4.405 3.352 7.722 7.796 7.722a7.358 7.358 0 0 0 6.485-3.69l.203-.369-1.696-.974-.207.425ZM75.105 21.733v-.992h-1.848v10.961h1.848v-6.047c0-3 2.261-3.235 2.956-3.235h.425V20.6h-.425a3.966 3.966 0 0 0-2.956 1.133ZM85.26 20.521c-3.284 0-5.671 2.398-5.671 5.718s2.416 5.7 5.749 5.7c2.05 0 3.835-.93 4.777-2.49l.222-.369-1.637-.996-.21.369c-.555 1.015-1.726 1.616-3.13 1.616-1.928 0-3.403-1.159-3.79-2.93h9.103v-.39a2.064 2.064 0 0 1 0-.214v-.273c0-2.782-1.888-5.741-5.413-5.741Zm0 1.822a3.473 3.473 0 0 1 3.462 2.989h-7.164a3.611 3.611 0 0 1 3.702-2.989ZM102.063 21.988a5.208 5.208 0 0 0-3.91-1.66 5.717 5.717 0 0 0-3.944 1.72 5.7 5.7 0 0 0 0 7.963 5.716 5.716 0 0 0 3.945 1.72 5.217 5.217 0 0 0 3.927-1.66v1.44h1.866V16.505h-1.866l-.018 5.482Zm-3.865 7.921a3.892 3.892 0 0 1-3.608-2.385 3.876 3.876 0 0 1 .836-4.24 3.89 3.89 0 0 1 6.637 2.762 3.831 3.831 0 0 1-3.865 3.863ZM112.664 20.521c-3.284 0-5.668 2.398-5.668 5.704 0 3.305 2.421 5.7 5.75 5.7 2.05 0 3.839-.93 4.781-2.49l.221-.37-1.64-.98-.211.368c-.554 1.015-1.725 1.616-3.129 1.616-1.933 0-3.403-1.159-3.795-2.93h9.101v-.877c.018-2.782-1.885-5.741-5.41-5.741Zm0 1.822a3.46 3.46 0 0 1 3.462 2.988h-7.16a3.605 3.605 0 0 1 1.287-2.187 3.617 3.617 0 0 1 2.411-.8ZM115.358 15.052h-2.28l-2.154 3.416h1.98l2.454-3.416ZM125.882 20.521a5.715 5.715 0 0 0-5.263 3.53 5.698 5.698 0 0 0 1.243 6.208 5.716 5.716 0 0 0 8.782-.856 5.703 5.703 0 0 0 .968-3.163 5.653 5.653 0 0 0-1.662-4.062 5.672 5.672 0 0 0-4.068-1.657Zm0 9.593a3.885 3.885 0 0 1-3.858-4.616 3.886 3.886 0 0 1 5.3-2.853 3.887 3.887 0 0 1 2.404 3.595 3.832 3.832 0 0 1-3.846 3.863v.01Z" fill="#333942"/></symbol>
	<symbol id="phone" viewBox="0 0 16 16" fill="none"><path d="M1.255 2.25A3.91 3.91 0 0 1 4.06.58a.472.472 0 0 1 .513.37l.453 2.114a2.084 2.084 0 0 1-.564 1.91c-.486.487-.698 1.187-.401 1.807.347.723.993 1.748 2.172 2.805a18.34 18.34 0 0 0 2.926 2.16c.642.378 1.433.226 1.96-.3a1.84 1.84 0 0 1 1.687-.5l2.244.482c.237.05.396.272.37.512a3.91 3.91 0 0 1-1.67 2.806 3.922 3.922 0 0 1-2.258.72c-.46 0-.916-.08-1.357-.24a15.598 15.598 0 0 1-9.36-9.36 3.903 3.903 0 0 1 .48-3.616Z" fill="#303633"/></symbol>
	<symbol id="mail" viewBox="0 0 22 18" fill="none"><path fill-rule="evenodd" clip-rule="evenodd" d="M1.379 1.629A3 3 0 0 1 3.5.75h15a3 3 0 0 1 3 3v10.5a3 3 0 0 1-3 3h-15a3 3 0 0 1-3-3V3.75a3 3 0 0 1 .879-2.121ZM2 3.75v.244a1.502 1.502 0 0 0 .713 1.277l7.5 4.614a1.501 1.501 0 0 0 1.574 0l7.5-4.615A1.501 1.501 0 0 0 20 3.993V3.75a1.5 1.5 0 0 0-1.5-1.5h-15A1.5 1.5 0 0 0 2 3.75Zm18 2.843-7.427 4.57a3.002 3.002 0 0 1-3.146 0L2 6.593v7.657a1.5 1.5 0 0 0 1.5 1.5h15a1.5 1.5 0 0 0 1.5-1.5V6.593Z" fill="#0B2A30"/></symbol>
	<symbol id="logo-2" width="147" height="52" fill="none" xmlns="http://www.w3.org/2000/svg"><path d="M22.893 30.347c.443 0 .665.578.665 1.734a4.784 4.784 0 0 1-.752 2.306 10.1 10.1 0 0 1-2.015 2.45 11.372 11.372 0 0 1-2.755 1.828 6.899 6.899 0 0 1-2.958.716c-1.307 0-2.182-1.168-2.626-3.505a8.152 8.152 0 0 1-2.539 2.638 7.38 7.38 0 0 1-4.16 1.037 5.497 5.497 0 0 1-2.27-.383 5.585 5.585 0 0 1-1.927-1.282 5.425 5.425 0 0 1-1.184-1.84 5.515 5.515 0 0 1-.37-2.168c0-4.272 1.394-7.64 4.18-10.103A9.79 9.79 0 0 1 7.49 21.74a10.57 10.57 0 0 1 3.236-.49 5.634 5.634 0 0 1 2.773.628c.345-.728.74-1.093 1.183-1.093.465.016.923.125 1.346.323.423.197.804.478 1.12.827a3.208 3.208 0 0 1 1.158 2.13 27.07 27.07 0 0 1-1.516 2.977 30.58 30.58 0 0 0-.296 4.863c0 2.094.26 3.142.777 3.142.64 0 2.194-1.307 4.66-3.92.443-.52.763-.78.96-.78ZM5.439 32.634c0 1.935.702 2.902 2.107 2.902 1.504-.025 2.75-.841 3.735-2.45.38-.632.666-1.318.85-2.036-.04-2.434.209-4.864.74-7.237a9.71 9.71 0 0 0-5.213 2.94 8.145 8.145 0 0 0-1.693 2.712 8.256 8.256 0 0 0-.526 3.169Z" fill="#7A8CA7"/><path d="M39.2 27.835c0-.838-.468-1.256-1.405-1.256-.641 0-1.356.627-2.145 1.884a13.63 13.63 0 0 0-1.7 4.09v.075c.005.894.136 1.783.387 2.64.203.609.333 1.242.389 1.884 0 .837-1.048 1.675-3.143 2.513-.27.114-.559.178-.851.188a1.267 1.267 0 0 1-.806-.263 1.308 1.308 0 0 1-.47-.717 8.092 8.092 0 0 1-.351-2.657c0-1.119.03-2.166.092-3.142s.124-1.892.185-2.751c.062-.838.124-1.58.185-2.225.062-.644.093-1.166.093-1.564 0-.837-.382-1.256-1.147-1.256-.764 0-1.652.911-2.662 2.733-1.01 1.821-1.516 3.267-1.516 4.335-.01 1 .121 1.996.388 2.959.202.61.333 1.243.388 1.884 0 .838-1.047 1.676-3.143 2.513a2.38 2.38 0 0 1-.85.189 1.27 1.27 0 0 1-.805-.264 1.312 1.312 0 0 1-.471-.716 9.593 9.593 0 0 1-.351-3.016 51.3 51.3 0 0 1 .406-7.727 17.562 17.562 0 0 1 2.515-6.635c.134-.285.337-.531.588-.715.253-.184.546-.302.854-.34.822 0 1.574.679 2.256 2.035.178.312.327.64.443.98a5.263 5.263 0 0 1 1.825-1.639 5.145 5.145 0 0 1 2.354-.622 4.265 4.265 0 0 1 2.847 1.074c.394.324.71.735.924 1.202.213.467.32.978.309 1.493v.415a6.875 6.875 0 0 1 2.419-2.104 6.73 6.73 0 0 1 3.09-.76c.55-.04 1.101.032 1.622.214.52.181 1 .467 1.411.84.338.34.604.745.782 1.192.178.447.264.927.254 1.41.007.934-.067 1.868-.222 2.79a31.393 31.393 0 0 1-.5 2.336c-.185.72-.35 1.368-.499 1.942-.126.429-.2.871-.222 1.319 0 .314.099.471.296.471a2.311 2.311 0 0 0 1.368-.716c.543-.478 1.085-1 1.627-1.565l1.498-1.564c.473-.49.791-.735.955-.735.345 0 .518.419.518 1.257 0 1.759-.869 3.468-2.607 5.126a7.98 7.98 0 0 1-5.547 2.513c-1.775 0-2.662-1.646-2.662-4.938a19.96 19.96 0 0 1 .407-3.43c.22-1.046.353-2.11.4-3.18Z" fill="#7A8CA7"/><path d="M59.539 36.065a8.943 8.943 0 0 1-3.107 2.577 8.764 8.764 0 0 1-3.9.928c-2.725 0-4.765-.71-6.12-2.13a7.182 7.182 0 0 1-1.536-2.437 7.29 7.29 0 0 1-.462-2.859 11.254 11.254 0 0 1 2.774-7.727 9.35 9.35 0 0 1 3.32-2.465 9.196 9.196 0 0 1 4.038-.777 8.724 8.724 0 0 1 3.329.528c1.454.603 2.182 1.169 2.182 1.696 0 .42-1.018.629-3.051.629a6.805 6.805 0 0 0-2.771.533 6.93 6.93 0 0 0-2.333 1.615 7.362 7.362 0 0 0-1.563 2.472 7.478 7.478 0 0 0-.489 2.9 4.237 4.237 0 0 0 .98 2.845c.352.392.785.698 1.269.896a3.411 3.411 0 0 0 1.523.248 5.464 5.464 0 0 0 2.977-.754 5.89 5.89 0 0 1-1.995-2.264 6.029 6.029 0 0 1-.63-2.975 4.72 4.72 0 0 1 1.275-3.3c.42-.484.939-.87 1.52-1.13a4.302 4.302 0 0 1 1.845-.377c1.368 0 2.349.384 2.94 1.15.62.868.932 1.924.888 2.997a10.035 10.035 0 0 1-.85 3.863h.22a4.074 4.074 0 0 0 2.793-1.143c.295-.301.549-.566.758-.792a.902.902 0 0 1 .616-.34c.346 0 .518.42.518 1.258a4.344 4.344 0 0 1-.279 1.88 4.278 4.278 0 0 1-1.052 1.569 4.395 4.395 0 0 1-2.915 1.112c-.91.014-1.818-.062-2.712-.226Zm-.333-4.398a6.25 6.25 0 0 0 .616-2.639c0-.837-.271-1.256-.813-1.256-.222 0-.407.163-.555.49-.14.294-.216.615-.222.942-.013.46.066.919.234 1.347.167.428.42.816.74 1.141v-.025Z" fill="#7A8CA7"/><path d="M143.302 39.564c2.042 0 3.698-1.688 3.698-3.77s-1.656-3.769-3.698-3.769c-2.043 0-3.698 1.687-3.698 3.77 0 2.08 1.655 3.769 3.698 3.769ZM105.158 31.038c.411 0 .616.578.616 1.734a4.765 4.765 0 0 1-.776 2.28c-.54.921-1.221 1.748-2.016 2.45a11.314 11.314 0 0 1-2.754 1.83 6.754 6.754 0 0 1-2.848.715 3.77 3.77 0 0 1-2.144-.527 3.626 3.626 0 0 1-1.234-1.433c-.41-.838-.755-2.464-1.034-4.881a36.222 36.222 0 0 0-.814-5.027 3.772 3.772 0 0 1-1.683-.772 1.764 1.764 0 0 1-.542-.637 1.8 1.8 0 0 1-.19-.82c-.02-.264.042-.529.178-.754.136-.226.339-.402.579-.503a3.865 3.865 0 0 1 1.738-.377c.619-.01 1.228.16 1.756.49a7.087 7.087 0 0 0 1.683-1.998c.465-.999.677-2.1.616-3.204a4.17 4.17 0 0 0-.31-1.764 4.111 4.111 0 0 0-1.02-1.459c-.852-.808-2.142-1.213-3.871-1.213a14.337 14.337 0 0 0-3.939.415c-.805.235-1.59.538-2.348.905-.653.327-1.232.628-1.738.905a2.98 2.98 0 0 1-1.423.414c-.444 0-.666-.144-.666-.433.108-.526.35-1.014.703-1.414a8.885 8.885 0 0 1 2.07-1.948 12.953 12.953 0 0 1 7.766-2.443 13.979 13.979 0 0 1 7.137 1.677 6.313 6.313 0 0 1 2.473 2.459 6.489 6.489 0 0 1 .818 3.422 8.277 8.277 0 0 1-1.664 5.39 9.568 9.568 0 0 1-4.216 3.091c.38.862.685 1.758.906 2.677.235.954.463 1.834.684 2.638.179.693.433 1.363.758 1.998.084.216.225.406.408.545.183.14.4.225.628.246.559-.07 1.08-.328 1.479-.735a25.523 25.523 0 0 0 1.72-1.602 57.81 57.81 0 0 0 1.516-1.602c.468-.49.801-.735.998-.735Zm-16.085-13.57c.32 0 .48.42.48 1.257a18.78 18.78 0 0 1-.148 2.412 35.881 35.881 0 0 1-.85 4.071c-.888 3.418-1.332 5.415-1.332 5.993v5.541a2.865 2.865 0 0 1-.334 1.635c-.27.497-.683.9-1.182 1.155l-1.35.628c-.46.207-.958.31-1.46.302-1.036 0-1.553-1.213-1.553-3.638a33.241 33.241 0 0 1 1.664-9.178 36.06 36.06 0 0 1 3.476-8.444 5.683 5.683 0 0 1 1.072-1.169 2.286 2.286 0 0 1 1.517-.565Z" fill="#0079F6"/><path d="M136.997 31.038c.411 0 .616.579.616 1.735a4.774 4.774 0 0 1-.789 2.28c-.54.92-1.22 1.747-2.015 2.45a11.365 11.365 0 0 1-2.755 1.828 7.39 7.39 0 0 1-3.198.717 3.217 3.217 0 0 1-1.437-.252 3.276 3.276 0 0 1-1.189-.86 3.751 3.751 0 0 1-.943-2.513c.019-1.052.168-2.097.444-3.11.312-1.14.64-2.337.986-3.594.937-3.35 1.417-5.7 1.442-7.049a3.202 3.202 0 0 0-.222-1.338.861.861 0 0 0-.353-.371.833.833 0 0 0-.498-.1c-.739 0-1.528.452-2.366 1.357a16.083 16.083 0 0 0-2.367 3.468 21.59 21.59 0 0 0-2.699 9.424l.148 1.055c.05.375.076.753.074 1.13a2.911 2.911 0 0 1-.334 1.24 2.865 2.865 0 0 1-.831.966c-.721.645-1.648 1-2.607.999-.265 0-.524-.081-.743-.232a1.358 1.358 0 0 1-.49-.616 4.833 4.833 0 0 1-.407-2.092c.05-1.15.236-2.289.555-3.393.37-1.432.781-2.952 1.233-4.56 1.183-4.248 1.787-7.414 1.812-9.5a6.458 6.458 0 0 0-.389-2.513 1.496 1.496 0 0 0-.604-.7 1.454 1.454 0 0 0-.893-.204c-1.331 0-2.651.967-3.957 2.902s-2.477 4.938-3.513 9.01a39.032 39.032 0 0 0-.616 2.75l-.037.717c.349 1.487.583 3 .702 4.523 0 1.458-.505 2.438-1.516 2.94l-1.35.629a3.241 3.241 0 0 1-1.386.301c-1.232 0-1.849-1.2-1.849-3.6 0-2.4.637-7.084 1.91-14.054.469-2.513.703-3.92.703-4.221 0-2.036-.505-3.054-1.516-3.054a1.594 1.594 0 0 0-.943.302c-.283.2-.567.41-.851.628-.283.218-.577.449-.88.691a1.768 1.768 0 0 1-1.018.302c-.382 0-.573-.34-.573-1.018a4.03 4.03 0 0 1 .507-1.949 3.938 3.938 0 0 1 1.379-1.444 7.127 7.127 0 0 1 4.407-1.382c2.218 0 3.525 1.048 3.919 3.141.099.629.173 1.295.223 1.998 1.824-3.476 4.128-5.214 6.914-5.214 3.053 0 4.785 1.482 5.196 4.448.152.909.214 1.83.185 2.752v.301c1.602-2.261 3.5-3.392 5.695-3.392 3.106 0 4.659 1.91 4.659 5.73a26.758 26.758 0 0 1-.758 5.823c-.505 2.225-.875 3.82-1.11 4.788-.2.731-.317 1.483-.351 2.243 0 .954.327 1.432.98 1.432s2.212-1.307 4.678-3.92c.46-.503.789-.755.986-.755ZM84.326 26.032c.617 0 .938.628.938 1.815a10.856 10.856 0 0 1-.827 3.907 14.094 14.094 0 0 1-2.465 4.022 14.215 14.215 0 0 1-4.178 3.304 12.465 12.465 0 0 1-5.997 1.37 8.715 8.715 0 0 1-6.046-2.35c-1.73-1.57-2.595-3.834-2.595-6.791-.03-2.732.386-5.45 1.233-8.042a21.59 21.59 0 0 1 3.217-6.226 15.317 15.317 0 0 1 4.542-4.084 9.726 9.726 0 0 1 4.863-1.457c2.667 0 4 1.21 4 3.632a6.423 6.423 0 0 1-.752 3.335c-.501.838-1.01 1.257-1.529 1.257a2.395 2.395 0 0 1-1.818-.836 2.437 2.437 0 0 0-1.72-.867c-.615 0-2.317-.07-3.752 2.287a7.957 7.957 0 0 0-1.233 2.595 18.732 18.732 0 0 0-1.232 6.91 6.59 6.59 0 0 0 2.421 4.304c.79.558 1.743.82 2.7.741a6.739 6.739 0 0 0 4.382-2.35 95.964 95.964 0 0 0 2.372-2.72 64.504 64.504 0 0 0 2.102-2.588c.604-.791 1.06-1.168 1.374-1.168Z" fill="#0079F6"/></symbol>
</svg>