<svg width="22" height="22" viewBox="0 0 22 22" fill="none" xmlns="http://www.w3.org/2000/svg">
<path d="M8.28177 16.5292L8.90895 16.0325L8.66873 15.7292H8.28177V16.5292ZM10.2172 18.9734L10.8444 18.4768V18.4768L10.2172 18.9734ZM11.7852 18.9734L11.158 18.4768V18.4768L11.7852 18.9734ZM13.7207 16.5292V15.7292H13.3337L13.0935 16.0325L13.7207 16.5292ZM3.35859 4.64746C3.35859 3.98472 3.89585 3.44746 4.55859 3.44746V1.84746C3.0122 1.84746 1.75859 3.10106 1.75859 4.64746H3.35859ZM3.35859 14.5292V4.64746H1.75859V14.5292H3.35859ZM4.55859 15.7292C3.89585 15.7292 3.35859 15.1919 3.35859 14.5292H1.75859C1.75859 16.0756 3.0122 17.3292 4.55859 17.3292V15.7292ZM8.28177 15.7292H4.55859V17.3292H8.28177V15.7292ZM10.8444 18.4768L8.90895 16.0325L7.65459 17.0258L9.59005 19.47L10.8444 18.4768ZM11.158 18.4768C11.0779 18.5779 10.9245 18.5779 10.8444 18.4768L9.59005 19.47C10.3107 20.3802 11.6917 20.3801 12.4124 19.47L11.158 18.4768ZM13.0935 16.0325L11.158 18.4768L12.4124 19.47L14.3478 17.0258L13.0935 16.0325ZM17.4428 15.7292H13.7207V17.3292H17.4428V15.7292ZM18.6428 14.5292C18.6428 15.1919 18.1055 15.7292 17.4428 15.7292V17.3292C18.9892 17.3292 20.2428 16.0756 20.2428 14.5292H18.6428ZM18.6428 4.64746V14.5292H20.2428V4.64746H18.6428ZM17.4428 3.44746C18.1055 3.44746 18.6428 3.98472 18.6428 4.64746H20.2428C20.2428 3.10106 18.9892 1.84746 17.4428 1.84746V3.44746ZM4.55859 3.44746H17.4428V1.84746H4.55859V3.44746Z" fill="#4EC275"/>
<path d="M11.1831 5.89551C11.4253 5.89551 11.6373 5.97457 11.819 6.1327C12.0128 6.27953 12.1097 6.51672 12.1097 6.84426C12.1097 7.17181 12.0128 7.41465 11.819 7.57277C11.6373 7.71961 11.4253 7.79302 11.1831 7.79302C10.9166 7.79302 10.6925 7.71961 10.5108 7.57277C10.3291 7.41465 10.2383 7.17181 10.2383 6.84426C10.2383 6.51672 10.3291 6.27953 10.5108 6.1327C10.6925 5.97457 10.9166 5.89551 11.1831 5.89551ZM11.1801 9.17326C11.6216 9.17326 11.9795 9.53117 11.9795 9.97268V13.3053C11.9795 13.7468 11.6216 14.1047 11.1801 14.1047C10.7386 14.1047 10.3807 13.7468 10.3807 13.3053V9.97268C10.3807 9.53117 10.7386 9.17326 11.1801 9.17326Z" fill="#4EC275"/>
</svg>
