<svg width="61" height="60" viewBox="0 0 61 60" fill="none" xmlns="http://www.w3.org/2000/svg">
<path d="M29.9809 4.24081C30.3118 4.03324 30.7323 4.03324 31.0632 4.24081V4.24081C37.7871 8.45848 41.8693 15.8378 41.8693 23.7751V47.2854H19.1748V23.7751C19.1748 15.8378 23.257 8.45848 29.9809 4.24081V4.24081Z" fill="#2F6F5B"/>
<path d="M12.792 39.8156C12.792 39.4225 13.0223 39.0659 13.3806 38.9042L23.4371 34.3655C24.0989 34.0668 24.8484 34.5508 24.8484 35.277V50.0113C24.8484 50.4044 24.6181 50.761 24.2598 50.9227L14.2034 55.4614C13.5415 55.7601 12.792 55.2761 12.792 54.5499V39.8156Z" fill="#4EC275"/>
<path d="M47.542 39.8156C47.542 39.4225 47.3117 39.0659 46.9534 38.9042L36.8969 34.3655C36.2351 34.0668 35.4856 34.5508 35.4856 35.277V50.0113C35.4856 50.4044 35.7159 50.761 36.0742 50.9227L46.1306 55.4614C46.7925 55.7601 47.542 55.2761 47.542 54.5499V39.8156Z" fill="#1E514B"/>
</svg>
