<svg width="61" height="60" viewBox="0 0 61 60" fill="none" xmlns="http://www.w3.org/2000/svg">
<path d="M11.1952 49.9682C11.2693 50.457 11.6895 50.8184 12.1839 50.8184H49.4816C49.978 50.8184 50.3992 50.4543 50.4711 49.9631L54.9104 19.6224C54.9661 19.242 54.7987 18.8633 54.4799 18.6484L51.2548 16.4746C51.0897 16.3633 50.8951 16.3039 50.6959 16.3039H30.835H11.5846C11.4138 16.3039 11.2458 16.3476 11.0966 16.431L7.10598 18.662C6.74232 18.8653 6.54282 19.2728 6.60525 19.6847L11.1952 49.9682Z" fill="#2F6F5B"/>
<rect x="16.2437" y="9.14844" width="29.7085" height="19.3801" fill="#2F6F5B"/>
<path d="M15.9539 9.14844L11.2983 16.2586L16.3161 33.9004C16.6756 35.1643 18.1354 35.744 19.2641 35.0711L30.2787 28.5039L15.9539 9.14844Z" fill="#4EC275"/>
<path d="M45.8434 9.14844L50.9038 16.2586L45.3995 34.0627C45.0256 35.272 43.6366 35.8342 42.5269 35.2255L30.2729 28.5039L45.8434 9.14844Z" fill="#1E514B"/>
</svg>
