<svg width="61" height="60" viewBox="0 0 61 60" fill="none" xmlns="http://www.w3.org/2000/svg">
<g clip-path="url(#clip0_162_188)">
<path d="M42.8195 7.96446C43.5176 7.81227 44.2439 8.04409 44.7248 8.5726L54.5276 19.3467C55.0085 19.8752 55.1709 20.6201 54.9536 21.3008L50.5244 35.1773C50.3072 35.858 49.7433 36.3711 49.0451 36.5233L34.8131 39.6257C34.115 39.7779 33.3887 39.5461 32.9078 39.0176L23.105 28.2435C22.6241 27.715 22.4617 26.9701 22.679 26.2894L27.1082 12.4129C27.3254 11.7322 27.8894 11.2191 28.5875 11.0669L42.8195 7.96446Z" fill="#2F6F5B"/>
<path d="M42.052 35.6917C42.7502 35.5395 43.4764 35.7713 43.9573 36.2998L48.9601 41.7983C49.441 42.3268 49.6034 43.0717 49.3861 43.7524L47.1257 50.8342C46.9084 51.5149 46.3445 52.0279 45.6464 52.1801L38.3832 53.7635C37.6851 53.9156 36.9588 53.6838 36.4779 53.1553L31.4751 47.6569C30.9942 47.1284 30.8318 46.3835 31.0491 45.7028L33.3095 38.621C33.5268 37.9403 34.0907 37.4272 34.7888 37.275L42.052 35.6917Z" fill="#1E514B"/>
<path d="M20.0927 20.2482C20.7909 20.096 21.5172 20.3278 21.998 20.8563L29.5573 29.1645C30.0381 29.693 30.2005 30.4379 29.9833 31.1186L26.5678 41.8192C26.3505 42.4999 25.7866 43.013 25.0885 43.1651L14.1138 45.5576C13.4156 45.7097 12.6893 45.4779 12.2085 44.9494L4.64922 36.6412C4.16836 36.1127 4.00597 35.3678 4.22324 34.6871L7.63871 23.9865C7.85598 23.3058 8.41989 22.7928 9.11803 22.6406L20.0927 20.2482Z" fill="#4EC275"/>
</g>
<defs>
<clipPath id="clip0_162_188">
<rect width="60" height="60" fill="white" transform="translate(0.5)"/>
</clipPath>
</defs>
</svg>
