<svg width="62" height="61" viewBox="0 0 62 61" fill="none" xmlns="http://www.w3.org/2000/svg">
<path d="M31.2018 40.9342L31.2121 51.5759" stroke="#57D983" stroke-width="1.5" stroke-linecap="square"/>
<path d="M31.2048 9.36523L31.2075 20.4058" stroke="#57D983" stroke-width="1.5" stroke-linecap="square"/>
<path fill-rule="evenodd" clip-rule="evenodd" d="M31.2042 9.3651C32.8284 9.3651 34.1451 8.0657 34.1451 6.46282C34.1451 4.85994 32.8284 3.56055 31.2042 3.56055C29.5799 3.56055 28.2632 4.85994 28.2632 6.46282C28.2632 8.0657 29.5799 9.3651 31.2042 9.3651Z" fill="#57D983"/>
<path fill-rule="evenodd" clip-rule="evenodd" d="M31.2042 57.3856C32.8284 57.3856 34.1451 56.0862 34.1451 54.4833C34.1451 52.8804 32.8284 51.5811 31.2042 51.5811C29.5799 51.5811 28.2632 52.8804 28.2632 54.4833C28.2632 56.0862 29.5799 57.3856 31.2042 57.3856Z" fill="#57D983"/>
<path d="M41.799 30.4737L52.5825 30.4636" stroke="#57D983" stroke-width="1.5" stroke-linecap="square"/>
<path d="M9.8064 30.4724L20.9942 30.4697" stroke="#57D983" stroke-width="1.5" stroke-linecap="square"/>
<path fill-rule="evenodd" clip-rule="evenodd" d="M9.80675 30.4747C9.80675 28.8718 8.49003 27.5724 6.86578 27.5724C5.24152 27.5724 3.9248 28.8718 3.9248 30.4747C3.9248 32.0776 5.24152 33.377 6.86578 33.377C8.49003 33.377 9.80675 32.0776 9.80675 30.4747Z" fill="#57D983"/>
<path fill-rule="evenodd" clip-rule="evenodd" d="M58.4686 30.4747C58.4686 28.8718 57.1519 27.5724 55.5276 27.5724C53.9034 27.5724 52.5867 28.8718 52.5867 30.4747C52.5867 32.0776 53.9034 33.377 55.5276 33.377C57.1519 33.377 58.4686 32.0776 58.4686 30.4747Z" fill="#57D983"/>
<path d="M38.6969 37.8699L46.3293 45.3876" stroke="#57D983" stroke-width="1.5" stroke-linecap="square"/>
<path d="M16.0809 15.5454L23.9937 23.3504" stroke="#57D983" stroke-width="1.5" stroke-linecap="square"/>
<path fill-rule="evenodd" clip-rule="evenodd" d="M16.0805 15.5473C17.2291 14.4139 17.2291 12.5763 16.0805 11.4429C14.932 10.3095 13.0699 10.3095 11.9214 11.4429C10.7729 12.5763 10.7729 14.4139 11.9214 15.5473C13.0699 16.6807 14.932 16.6807 16.0805 15.5473Z" fill="#57D983"/>
<path fill-rule="evenodd" clip-rule="evenodd" d="M50.4897 49.5024C51.6382 48.369 51.6382 46.5314 50.4897 45.398C49.3412 44.2646 47.4791 44.2646 46.3306 45.398C45.182 46.5314 45.182 48.369 46.3306 49.5024C47.4791 50.6358 49.3412 50.6358 50.4897 49.5024Z" fill="#57D983"/>
<path d="M23.7055 37.8699L16.0731 45.3876" stroke="#57D983" stroke-width="1.5" stroke-linecap="square"/>
<path d="M46.3214 15.5454L38.4086 23.3504" stroke="#57D983" stroke-width="1.5" stroke-linecap="square"/>
<path fill-rule="evenodd" clip-rule="evenodd" d="M46.3216 15.5473C45.173 14.4139 45.173 12.5763 46.3216 11.4429C47.4701 10.3095 49.3322 10.3095 50.4807 11.4429C51.6292 12.5763 51.6292 14.4139 50.4807 15.5473C49.3322 16.6807 47.4701 16.6807 46.3216 15.5473Z" fill="#57D983"/>
<path fill-rule="evenodd" clip-rule="evenodd" d="M11.9124 49.5024C10.7639 48.369 10.7639 46.5314 11.9124 45.398C13.0609 44.2646 14.923 44.2646 16.0715 45.398C17.2201 46.5314 17.2201 48.369 16.0715 49.5024C14.923 50.6358 13.0609 50.6358 11.9124 49.5024Z" fill="#57D983"/>
<ellipse cx="31.1978" cy="30.4731" rx="14.4375" ry="14.2475" fill="black"/>
<rect x="29.8643" y="27.3047" width="3.20833" height="9.49835" fill="white"/>
<rect x="29.8643" y="22.5557" width="3.20833" height="3.16612" rx="1.58306" fill="white"/>
<rect x="28.2622" y="27.3047" width="4.8125" height="1.58306" fill="white"/>
</svg>
