<svg width="62" height="61" viewBox="0 0 62 61" fill="none" xmlns="http://www.w3.org/2000/svg">
<path d="M46.326 12.2162C45.6885 12.217 45.0531 12.2913 44.4323 12.4379C44.2909 11.4814 43.919 10.5744 43.3491 9.79645C42.7798 9.01908 42.0296 8.3947 41.1645 7.9783C40.3003 7.5622 39.3476 7.36703 38.3908 7.41002C37.4339 7.453 36.5023 7.73283 35.6781 8.22479C34.2644 6.62755 32.4432 5.4515 30.4127 4.8245C28.3833 4.19818 26.2222 4.14544 24.1652 4.67203C22.107 5.19915 20.2316 6.28503 18.7431 7.81154C17.2528 9.3397 16.2057 11.2497 15.7151 13.3346C15.5068 14.2253 15.4016 15.1374 15.4015 16.0526C15.4019 16.5996 15.4406 17.1456 15.5175 17.6872V17.6999C14.7201 17.4065 13.8685 17.2932 13.0229 17.3679C12.1772 17.4427 11.3582 17.7037 10.6236 18.1325C9.88834 18.5616 9.25528 19.1478 8.76895 19.8499C8.03483 20.9095 7.66745 22.1833 7.72362 23.4743C7.77979 24.7654 8.25637 26.0019 9.07969 26.9926C9.62471 27.6489 10.3059 28.1767 11.0753 28.5387C11.8447 28.9008 12.6836 29.0883 13.5327 29.088H46.326C47.423 29.0878 48.5092 28.8695 49.5223 28.4455C50.5354 28.0215 51.4555 27.4002 52.23 26.6172C53.7966 25.0335 54.6761 22.8883 54.6756 20.652C54.676 18.4158 53.7965 16.2707 52.23 14.6871C51.4555 13.9041 50.5354 13.2828 49.5223 12.8588C48.5092 12.4348 47.423 12.2164 46.326 12.2162Z" fill="#57D983"/>
<rect x="17.7417" y="21.0225" width="27.1573" height="10.4386" fill="black"/>
<rect x="20.4744" y="25.0371" width="12.3463" height="2.40987" fill="white"/>
<rect x="17.7417" y="33.7422" width="27.1573" height="10.4386" fill="black"/>
<rect x="20.4744" y="37.7568" width="12.3463" height="2.40986" fill="white"/>
<rect x="17.7417" y="46.4609" width="27.1573" height="10.4386" fill="black"/>
<rect x="20.4744" y="50.4746" width="12.3463" height="2.40987" fill="white"/>
</svg>
