<svg width="99" height="35" viewBox="0 0 99 35" fill="none" xmlns="http://www.w3.org/2000/svg">
<path fill-rule="evenodd" clip-rule="evenodd" d="M0.000336976 19.6865C1.27707 27.8274 8.32199 34.0547 16.8214 34.0547C26.2254 34.0547 33.8488 26.4312 33.8488 17.0272C33.8488 7.62321 26.2254 -0.000240326 16.8214 -0.000240326C8.32124 -0.000240326 1.27583 6.22817 0 14.3701H7.81006C8.95659 10.4779 12.5566 7.63681 16.8202 7.63681C22.007 7.63681 26.2118 11.8416 26.2118 17.0284C26.2118 22.2153 22.007 26.42 16.8202 26.42C12.5565 26.42 8.95644 23.5788 7.80998 19.6865H0.000336976Z" fill="#4EC275"/>
<path d="M60.0483 17.92C60.0483 12.2247 55.7265 9.41049 51.4048 9.44399C47.15 9.4775 42.9287 12.3252 42.9287 17.92C42.9287 23.5819 47.2505 26.3961 51.5388 26.3961C55.7935 26.3961 60.0483 23.5819 60.0483 17.92ZM47.5855 17.92C47.5855 15.0053 49.5621 13.5648 51.5388 13.5648C53.5154 13.5648 55.3915 15.0388 55.3915 17.92C55.3915 20.8682 53.4149 22.3423 51.4383 22.3088C49.4951 22.3088 47.5855 20.8347 47.5855 17.92ZM67.9551 15.9099V1.93952H63.2983V26.0275H67.9551V19.5951H69.0606C69.4627 19.5951 70.0322 19.5616 70.4342 19.4276L74.22 26.0275H78.9773V25.5585L74.421 17.9535C77.5702 16.2449 78.2737 13.2632 78.2067 9.87952H73.7844C73.7844 13.2297 72.8464 15.9099 69.1276 15.9099H67.9551ZM97.3984 15.7424C96.6614 11.5211 93.1102 9.41049 89.4584 9.41049C85.2037 9.41049 80.8149 12.2582 80.8149 17.92C80.8149 23.6154 85.1702 26.4296 89.4249 26.3961C93.1437 26.3626 96.7954 24.1849 97.4654 19.8631H93.0097C92.4401 21.5718 91.033 22.3758 89.5589 22.3758C87.5488 22.3758 85.4717 20.8347 85.4717 17.92C85.4717 15.0388 87.5488 13.5648 89.5589 13.5313C90.9995 13.4977 92.3731 14.2348 92.9427 15.7424H97.3984Z" fill="#E8E8E8"/>
</svg>
