<svg width="201" height="70" viewBox="0 0 201 70" fill="none" xmlns="http://www.w3.org/2000/svg">
<g clip-path="url(#clip0_147_45306)">
<path d="M53.7438 36.4817C51.7973 40.439 48.5937 43.6121 44.6516 45.4872C40.7097 47.3624 36.2604 47.8296 32.0247 46.813C27.789 45.7964 24.015 43.3558 21.3141 39.8864C18.6133 36.4172 17.1438 32.1224 17.1438 27.698C17.1438 23.2737 18.6133 18.9789 21.3141 15.5096C24.015 12.0402 27.789 9.59959 32.0247 8.58305C36.2604 7.56651 40.7097 8.03362 44.6516 9.90873C48.5937 11.7838 51.7973 14.9571 53.7438 18.9143L60.8345 15.3071C58.0902 9.72764 53.573 5.25362 48.0151 2.60988C42.457 -0.0338493 36.1838 -0.692406 30.2117 0.740913C24.2397 2.17423 18.9184 5.61545 15.1104 10.507C11.3023 15.3986 9.23047 21.454 9.23047 27.6922C9.23047 33.9302 11.3023 39.9857 15.1104 44.8773C18.9184 49.7688 24.2397 53.21 30.2117 54.6434C36.1838 56.0767 42.457 55.4181 48.0151 52.7744C53.573 50.1307 58.0902 45.6566 60.8345 40.0773L53.7438 36.4817Z" fill="black"/>
<path d="M67.9419 43.6914C65.047 49.5937 60.6013 54.5661 55.0971 58.0576C49.5931 61.5488 43.2456 63.423 36.7581 63.4721C30.2706 63.5213 23.8962 61.7434 18.3417 58.3357C12.787 54.928 8.2689 50.0235 5.28789 44.1657L0 46.9472C3.49073 53.7906 8.77531 59.5191 15.2693 63.4994C21.7632 67.4796 29.2137 69.5564 36.7963 69.5C44.379 69.4437 51.7987 67.2563 58.2349 63.1801C64.6708 59.1036 69.8724 53.2972 73.2643 46.4026L67.9419 43.6914Z" fill="#33C369"/>
<path d="M102.006 32.5747C101.264 33.9172 100.18 35.0307 98.8663 35.7978C97.5531 36.5646 96.0605 36.9564 94.5462 36.9315C89.241 36.9315 85.3933 33.0315 85.3933 27.6617C85.3933 22.2919 89.241 18.386 94.5462 18.386C96.0419 18.3611 97.5169 18.7431 98.8183 19.4927C100.12 20.2423 101.2 21.3321 101.948 22.649L102.271 23.2347L104.92 21.6888L104.592 21.1031C103.563 19.3325 102.092 17.8696 100.328 16.8629C98.5635 15.8562 96.5691 15.3413 94.5462 15.3703C87.6339 15.3703 82.3921 20.6405 82.3921 27.6324C82.3921 34.6242 87.6166 39.8886 94.5462 39.8886C96.5921 39.9191 98.6087 39.3921 100.386 38.3623C102.164 37.3325 103.638 35.8376 104.655 34.0328L104.972 33.4471L102.328 31.9012L102.006 32.5747Z" fill="black"/>
<path d="M111.836 23.7454V22.1703H108.956V39.5678H111.836V29.9702C111.836 25.2094 115.361 24.8347 116.444 24.8347H117.106V21.9477H116.444C115.595 21.909 114.748 22.0489 113.955 22.3581C113.163 22.6674 112.441 23.1397 111.836 23.7454Z" fill="black"/>
<path d="M127.674 21.8193C122.554 21.8193 118.833 25.6256 118.833 30.8959C118.833 36.166 122.6 39.9431 127.795 39.9431C130.992 39.9431 133.775 38.4673 135.243 35.9904L135.589 35.4047L133.037 33.8237L132.709 34.4093C131.845 36.0197 130.019 36.9741 127.83 36.9741C124.823 36.9741 122.525 35.1354 121.92 32.3247H136.113V31.7039C136.107 31.5907 136.107 31.4775 136.113 31.3642C136.113 31.2179 136.113 31.0774 136.113 30.931C136.113 26.5157 133.17 21.8193 127.674 21.8193ZM127.674 24.7121C128.987 24.7022 130.258 25.1781 131.251 26.0507C132.244 26.9235 132.891 28.1335 133.072 29.4554H121.903C122.137 28.0886 122.851 26.8545 123.913 25.9824C124.974 25.1102 126.311 24.6588 127.674 24.7121Z" fill="black"/>
<path d="M154.303 24.4547C153.526 23.6051 152.582 22.9315 151.532 22.4775C150.482 22.0234 149.35 21.7993 148.209 21.8196C145.887 21.8796 143.68 22.8594 142.059 24.5501C140.438 26.2409 139.53 28.5086 139.53 30.8697C139.53 33.2309 140.438 35.4986 142.059 37.1893C143.68 38.88 145.887 39.8598 148.209 39.9198C149.355 39.9442 150.493 39.7222 151.548 39.268C152.603 38.8139 153.552 38.1379 154.332 37.2847V39.5686H157.241V15.7529H154.332L154.303 24.4547ZM148.278 37.0271C147.077 37.034 145.901 36.6779 144.899 36.0039C143.898 35.3299 143.116 34.3686 142.652 33.2419C142.189 32.1151 142.066 30.874 142.298 29.6758C142.531 28.4777 143.108 27.3769 143.957 26.5129C144.806 25.6491 145.888 25.0612 147.066 24.8239C148.245 24.5868 149.466 24.7108 150.575 25.1806C151.683 25.6503 152.63 26.4443 153.294 27.462C153.958 28.4796 154.309 29.675 154.303 30.896C154.31 31.7027 154.159 32.5026 153.859 33.2492C153.559 33.9959 153.115 34.6743 152.554 35.245C151.994 35.8156 151.327 36.267 150.593 36.573C149.858 36.8789 149.072 37.0334 148.278 37.0271Z" fill="black"/>
<path d="M170.392 21.8193C165.271 21.8193 161.556 25.6256 161.556 30.8723C161.556 36.1192 165.329 39.9197 170.519 39.9197C173.716 39.9197 176.504 38.4439 177.972 35.967L178.318 35.3813L175.761 33.8237L175.432 34.4093C174.568 36.0197 172.742 36.9741 170.553 36.9741C167.541 36.9741 165.248 35.1354 164.637 32.3247H178.824V31.7039C178.824 31.5926 178.824 31.4756 178.824 31.3642C178.824 31.253 178.824 31.0774 178.824 30.931C178.853 26.5157 175.888 21.8193 170.392 21.8193ZM170.392 24.7121C171.705 24.701 172.977 25.1764 173.971 26.0493C174.963 26.9222 175.61 28.133 175.79 29.4554H164.626C164.859 28.0889 165.572 26.8552 166.633 25.9829C167.693 25.1106 169.029 24.659 170.392 24.7121Z" fill="black"/>
<path d="M174.594 13.1396H171.039L167.68 18.5622H170.768L174.594 13.1396Z" fill="black"/>
<path d="M190.997 21.8179C189.238 21.8236 187.52 22.359 186.06 23.3562C184.6 24.3534 183.464 25.768 182.793 27.4213C182.122 29.0747 181.949 30.8929 182.293 32.6463C182.639 34.3999 183.488 36.0103 184.732 37.2745C185.976 38.5386 187.561 39.3997 189.286 39.7492C191.011 40.0989 192.799 39.9213 194.425 39.2388C196.051 38.5564 197.442 37.3996 198.421 35.9145C199.401 34.4294 199.927 32.6826 199.932 30.8944C199.944 29.6987 199.72 28.5126 199.275 27.4057C198.83 26.2988 198.173 25.2932 197.341 24.448C196.508 23.6028 195.518 22.9348 194.43 22.4832C193.34 22.0315 192.175 21.8053 190.997 21.8179ZM190.997 37.043C189.796 37.0557 188.618 36.7049 187.612 36.0354C186.608 35.3658 185.82 34.4075 185.353 33.2823C184.884 32.1573 184.756 30.9159 184.983 29.7165C185.211 28.517 185.784 27.4133 186.631 26.5457C187.477 25.6782 188.558 25.0861 189.736 24.8443C190.913 24.6028 192.135 24.7226 193.246 25.1886C194.356 25.6548 195.306 26.4461 195.974 27.4621C196.641 28.478 196.997 29.6727 196.994 30.8944C197.002 31.6987 196.852 32.4966 196.554 33.2416C196.256 33.9866 195.815 34.664 195.257 35.2344C194.699 35.8048 194.035 36.2569 193.304 36.5644C192.573 36.8717 191.789 37.0285 190.997 37.0253V37.043Z" fill="black"/>
</g>
<defs>
<clipPath id="clip0_147_45306">
<rect width="200.226" height="69.5" fill="white"/>
</clipPath>
</defs>
</svg>
