<svg width="62" height="61" viewBox="0 0 62 61" fill="none" xmlns="http://www.w3.org/2000/svg">
<path d="M13.1125 12.9258L48.2216 47.554" stroke="#57D983" stroke-width="1.5" stroke-linecap="square"/>
<circle cx="4.53372" cy="4.53372" r="4.53372" transform="matrix(0.711774 -0.702409 0.711774 0.702409 42.2295 48.0195)" fill="#57D983"/>
<circle cx="4.53372" cy="4.53372" r="4.53372" transform="matrix(0.711774 -0.702409 0.711774 0.702409 6.6582 12.9258)" fill="#57D983"/>
<path d="M13.1177 48.0244L48.2076 13.3774" stroke="#57D983" stroke-width="1.5" stroke-linecap="square"/>
<circle cx="4.53372" cy="4.53372" r="4.53372" transform="matrix(-0.711774 -0.702408 0.711774 -0.702408 48.6797 19.2891)" fill="#57D983"/>
<circle cx="4.53372" cy="4.53372" r="4.53372" transform="matrix(-0.711774 -0.702409 0.711774 -0.702409 13.1177 54.3936)" fill="#57D983"/>
<ellipse cx="30.8984" cy="30.4725" rx="13.6809" ry="13.5009" fill="black"/>
<path d="M30.8973 29.8645C31.9146 29.8645 32.8902 29.4657 33.6096 28.7558C34.3289 28.046 34.733 27.0832 34.733 26.0792C34.733 25.0753 34.3289 24.1125 33.6096 23.4026C32.8902 22.6928 31.9146 22.2939 30.8973 22.2939C29.88 22.2939 28.9043 22.6928 28.185 23.4026C27.4656 24.1125 27.0615 25.0753 27.0615 26.0792C27.0615 27.0832 27.4656 28.046 28.185 28.7558C28.9043 29.4657 29.88 29.8645 30.8973 29.8645Z" fill="white"/>
<path d="M37.4737 32.1624C37.4752 33.5906 36.9987 34.9793 36.1181 36.1128C35.2375 37.2462 34.0022 38.0608 32.6041 38.4301C31.2063 38.7998 29.724 38.7039 28.387 38.1573C27.0501 37.6107 25.9334 36.6439 25.2102 35.4069C25.0524 35.1474 24.9151 34.8762 24.7996 34.5958C24.6917 34.3314 24.6009 34.0604 24.5278 33.7846C24.3928 33.2541 24.3238 32.7094 24.3225 32.1624C24.3225 31.9216 24.3949 31.6863 24.5304 31.4861C24.6659 31.2859 24.8585 31.1298 25.0838 31.0376C25.2334 30.9764 25.3938 30.945 25.5558 30.9453H36.2411C36.5681 30.9455 36.8816 31.0738 37.1127 31.302C37.3438 31.5303 37.4737 31.8397 37.4737 32.1624Z" fill="white"/>
</svg>
