<svg width="400" height="184" viewBox="0 0 400 184" fill="none" xmlns="http://www.w3.org/2000/svg">
<path d="M132.013 143.433V143.933H132.513V143.433H132.013ZM133.969 151.914L133.98 151.414H133.969V151.914ZM190.119 151.914V151.414L190.108 151.414L190.119 151.914ZM210.261 151.914L210.272 151.414H210.261V151.914ZM266.41 151.914V151.414L266.4 151.414L266.41 151.914ZM268.367 143.433H267.867V143.933H268.367V143.433ZM268.366 138.011H267.866V138.019L267.866 138.027L268.366 138.011ZM208.305 140.978H208.805V140.478H208.305V140.978ZM192.075 140.978V140.478H191.575V140.978H192.075ZM192.075 143.433H191.575V143.933H192.075V143.433ZM208.305 143.433V143.933H208.805V143.433H208.305ZM132.513 62.5342C132.513 58.392 135.871 55.0342 140.013 55.0342V54.0342C135.319 54.0342 131.513 57.8398 131.513 62.5342H132.513ZM132.513 138.077V62.5342H131.513V138.077H132.513ZM132.513 140.978V138.077H131.513V140.978H132.513ZM132.513 143.433V140.978H131.513V143.433H132.513ZM119.502 143.933H132.013V142.933H119.502V143.933ZM118.002 145.433C118.002 144.604 118.674 143.933 119.502 143.933V142.933C118.122 142.933 117.002 144.052 117.002 145.433H118.002ZM118.002 149.914V145.433H117.002V149.914H118.002ZM119.502 151.414C118.674 151.414 118.002 150.743 118.002 149.914H117.002C117.002 151.295 118.122 152.414 119.502 152.414V151.414ZM133.969 151.414H119.502V152.414H133.969V151.414ZM134.013 151.415C134.002 151.415 133.991 151.414 133.98 151.414L133.959 152.414C133.977 152.414 133.995 152.415 134.013 152.415V151.415ZM190.075 151.415H134.013V152.415H190.075V151.415ZM190.108 151.414C190.097 151.414 190.086 151.415 190.075 151.415V152.415C190.093 152.415 190.111 152.414 190.129 152.414L190.108 151.414ZM210.261 151.414H190.119V152.414H210.261V151.414ZM210.305 151.415C210.294 151.415 210.283 151.414 210.272 151.414L210.25 152.414C210.269 152.414 210.287 152.415 210.305 152.415V151.415ZM266.367 151.415H210.305V152.415H266.367V151.415ZM266.4 151.414C266.389 151.414 266.378 151.415 266.367 151.415V152.415C266.385 152.415 266.403 152.414 266.421 152.414L266.4 151.414ZM279.496 151.414H266.41V152.414H279.496V151.414ZM280.996 149.914C280.996 150.743 280.324 151.414 279.496 151.414V152.414C280.877 152.414 281.996 151.295 281.996 149.914H280.996ZM280.996 145.433V149.914H281.996V145.433H280.996ZM279.496 143.933C280.324 143.933 280.996 144.604 280.996 145.433H281.996C281.996 144.052 280.877 142.933 279.496 142.933V143.933ZM268.367 143.933H279.496V142.933H268.367V143.933ZM267.867 138.077V143.433H268.867V138.077H267.867ZM267.866 138.027C267.867 138.044 267.867 138.06 267.867 138.077H268.867C268.867 138.049 268.866 138.022 268.866 137.994L267.866 138.027ZM267.866 62.5342V138.011H268.866V62.5342H267.866ZM260.366 55.0342C264.508 55.0342 267.866 58.392 267.866 62.5342H268.866C268.866 57.8398 265.06 54.0342 260.366 54.0342V55.0342ZM140.013 55.0342H260.366V54.0342H140.013V55.0342ZM208.305 140.478H192.075V141.478H208.305V140.478ZM191.575 140.978V143.433H192.575V140.978H191.575ZM192.075 143.933H208.305V142.933H192.075V143.933ZM208.805 143.433V140.978H207.805V143.433H208.805Z" fill="#4EC275"/>
<g filter="url(#filter0_ii_177_945)">
<path d="M277.469 76.8887C277.469 93.7556 263.776 107.357 246.909 107.357C230.042 107.357 216.349 93.6641 216.349 76.8887C216.349 60.0219 230.042 46.4189 246.909 46.4189C263.776 46.4189 277.469 60.0219 277.469 76.8887Z" fill="url(#paint0_linear_177_945)"/>
</g>
<path fill-rule="evenodd" clip-rule="evenodd" d="M251.186 76.0947C251.235 76.3556 251.259 76.6211 251.259 76.8878C251.259 77.4678 251.143 78.042 250.918 78.5765C250.693 79.1111 250.363 79.5952 249.948 80.0005C249.534 80.4059 249.042 80.7241 248.502 80.9367C247.963 81.1492 247.386 81.2517 246.806 81.2382C245.67 81.2116 244.589 80.7416 243.795 79.9287C243.001 79.1157 242.556 78.0243 242.556 76.8878C242.556 76.322 242.666 75.7673 242.875 75.2526L227.845 63.3742L229.705 61.0205L244.898 73.0279C245.483 72.7235 246.135 72.5531 246.806 72.5374C247.386 72.5239 247.963 72.6264 248.502 72.8389C248.918 73.0027 249.306 73.2293 249.651 73.5102L259.667 66.6715L261.359 69.1491L251.186 76.0947Z" fill="#174342"/>
<defs>
<filter id="filter0_ii_177_945" x="216.349" y="42.4189" width="61.1201" height="71.9385" filterUnits="userSpaceOnUse" color-interpolation-filters="sRGB">
<feFlood flood-opacity="0" result="BackgroundImageFix"/>
<feBlend mode="normal" in="SourceGraphic" in2="BackgroundImageFix" result="shape"/>
<feColorMatrix in="SourceAlpha" type="matrix" values="0 0 0 0 0 0 0 0 0 0 0 0 0 0 0 0 0 0 127 0" result="hardAlpha"/>
<feOffset dy="7"/>
<feGaussianBlur stdDeviation="12.5"/>
<feComposite in2="hardAlpha" operator="arithmetic" k2="-1" k3="1"/>
<feColorMatrix type="matrix" values="0 0 0 0 0.419688 0 0 0 0 0.9875 0 0 0 0 0.61187 0 0 0 1 0"/>
<feBlend mode="normal" in2="shape" result="effect1_innerShadow_177_945"/>
<feColorMatrix in="SourceAlpha" type="matrix" values="0 0 0 0 0 0 0 0 0 0 0 0 0 0 0 0 0 0 127 0" result="hardAlpha"/>
<feOffset dy="-4"/>
<feGaussianBlur stdDeviation="8"/>
<feComposite in2="hardAlpha" operator="arithmetic" k2="-1" k3="1"/>
<feColorMatrix type="matrix" values="0 0 0 0 0.0340798 0 0 0 0 0.629167 0 0 0 0 0.235494 0 0 0 1 0"/>
<feBlend mode="normal" in2="effect1_innerShadow_177_945" result="effect2_innerShadow_177_945"/>
</filter>
<linearGradient id="paint0_linear_177_945" x1="246.909" y1="46.4189" x2="246.909" y2="107.357" gradientUnits="userSpaceOnUse">
<stop offset="0.00520833" stop-color="#C4F4D4"/>
<stop offset="0.109375" stop-color="#57D982"/>
<stop offset="0.880208" stop-color="#57D982"/>
<stop offset="1" stop-color="#399658"/>
</linearGradient>
</defs>
</svg>
