<svg width="401" height="184" viewBox="0 0 401 184" fill="none" xmlns="http://www.w3.org/2000/svg">
<path d="M213.782 132.81V132.31H213.282V132.81H213.782ZM213.782 148H213.282V148.5H213.782V148ZM225.398 148H225.898V147.5H225.398V148ZM225.398 152V152.5H225.898V152H225.398ZM176.398 152H175.898V152.5H176.398V152ZM176.398 148V147.5H175.898V148H176.398ZM187.282 148V148.5H187.782V148H187.282ZM187.282 132.81H187.782V132.31H187.282V132.81ZM152.852 45.5C144.843 45.5 138.352 51.9919 138.352 60H139.352C139.352 52.5442 145.396 46.5 152.852 46.5V45.5ZM248.214 45.5H152.852V46.5H248.214V45.5ZM262.714 60C262.714 51.9919 256.222 45.5 248.214 45.5V46.5C255.669 46.5 261.714 52.5442 261.714 60H262.714ZM262.714 118.81V60H261.714V118.81H262.714ZM248.214 133.31C256.222 133.31 262.714 126.818 262.714 118.81H261.714C261.714 126.266 255.669 132.31 248.214 132.31V133.31ZM213.782 133.31H248.214V132.31H213.782V133.31ZM214.282 148V132.81H213.282V148H214.282ZM213.782 148.5H225.398V147.5H213.782V148.5ZM224.898 148V152H225.898V148H224.898ZM225.398 151.5H176.398V152.5H225.398V151.5ZM176.898 152V148H175.898V152H176.898ZM176.398 148.5H187.282V147.5H176.398V148.5ZM186.782 132.81V148H187.782V132.81H186.782ZM152.852 133.31H187.282V132.31H152.852V133.31ZM138.352 118.81C138.352 126.818 144.843 133.31 152.852 133.31V132.31C145.396 132.31 139.352 126.266 139.352 118.81H138.352ZM138.352 60V118.81H139.352V60H138.352Z" fill="#4EC275"/>
<g filter="url(#filter0_ii_177_842)">
<mask id="mask0_177_842" style="mask-type:alpha" maskUnits="userSpaceOnUse" x="153" y="66" width="96" height="56">
<rect x="153.247" y="66.9385" width="95.5309" height="54.963" fill="#D9D9D9"/>
</mask>
<g mask="url(#mask0_177_842)">
<path fill-rule="evenodd" clip-rule="evenodd" d="M247.469 108.868V127.08L238.482 129.37C237.778 131.653 236.867 133.859 235.763 135.952L240.495 143.921L227.615 156.801L219.645 152.069C217.553 153.173 215.347 154.085 213.064 154.788L210.774 163.778H192.562L190.272 154.791C187.989 154.087 185.783 153.176 183.69 152.072L175.721 156.804L162.841 143.924L167.573 135.954C166.469 133.862 165.558 131.656 164.854 129.373L155.864 127.083V108.87L164.851 106.58C165.555 104.297 166.466 102.092 167.57 99.9991L162.838 92.0294L175.718 79.1493L183.688 83.8814C185.781 82.7773 187.986 81.8661 190.269 81.1622L192.559 72.1729H210.772L213.062 81.1598C215.345 81.8637 217.551 82.7749 219.643 83.879L227.613 79.1469L240.493 92.027L235.761 99.9966C236.865 102.089 237.776 104.295 238.48 106.578L247.469 108.868ZM175.238 117.975C175.238 132.569 187.069 144.4 201.663 144.4C216.256 144.4 228.087 132.569 228.087 117.975C228.087 103.382 216.256 91.5507 201.663 91.5507C187.069 91.5507 175.238 103.382 175.238 117.975Z" fill="url(#paint0_linear_177_842)"/>
</g>
</g>
<defs>
<filter id="filter0_ii_177_842" x="155.864" y="68.1729" width="91.605" height="60.7285" filterUnits="userSpaceOnUse" color-interpolation-filters="sRGB">
<feFlood flood-opacity="0" result="BackgroundImageFix"/>
<feBlend mode="normal" in="SourceGraphic" in2="BackgroundImageFix" result="shape"/>
<feColorMatrix in="SourceAlpha" type="matrix" values="0 0 0 0 0 0 0 0 0 0 0 0 0 0 0 0 0 0 127 0" result="hardAlpha"/>
<feOffset dy="7"/>
<feGaussianBlur stdDeviation="12.5"/>
<feComposite in2="hardAlpha" operator="arithmetic" k2="-1" k3="1"/>
<feColorMatrix type="matrix" values="0 0 0 0 0.419688 0 0 0 0 0.9875 0 0 0 0 0.61187 0 0 0 1 0"/>
<feBlend mode="normal" in2="shape" result="effect1_innerShadow_177_842"/>
<feColorMatrix in="SourceAlpha" type="matrix" values="0 0 0 0 0 0 0 0 0 0 0 0 0 0 0 0 0 0 127 0" result="hardAlpha"/>
<feOffset dy="-4"/>
<feGaussianBlur stdDeviation="8"/>
<feComposite in2="hardAlpha" operator="arithmetic" k2="-1" k3="1"/>
<feColorMatrix type="matrix" values="0 0 0 0 0.0340798 0 0 0 0 0.629167 0 0 0 0 0.235494 0 0 0 1 0"/>
<feBlend mode="normal" in2="effect1_innerShadow_177_842" result="effect2_innerShadow_177_842"/>
</filter>
<linearGradient id="paint0_linear_177_842" x1="201.667" y1="72.1729" x2="201.667" y2="163.778" gradientUnits="userSpaceOnUse">
<stop offset="0.00520833" stop-color="#C4F4D4"/>
<stop offset="0.109375" stop-color="#57D982"/>
<stop offset="0.880208" stop-color="#57D982"/>
<stop offset="1" stop-color="#399658"/>
</linearGradient>
</defs>
</svg>
