<svg width="401" height="184" viewBox="0 0 401 184" fill="none" xmlns="http://www.w3.org/2000/svg">
<path d="M243.595 74.9416V49.2236C243.595 49.2236 221.974 49.8198 200.353 49.8198C178.731 49.8198 157.11 49.2236 157.11 49.2236V100.66C157.11 112.874 162.159 124.546 171.061 132.909C176.16 137.701 181.751 141.94 187.741 145.557L200.353 153.172L212.964 145.557C218.954 141.94 224.545 137.701 229.645 132.909C233.574 129.218 236.752 124.882 239.077 120.139" stroke="#4EC275"/>
<g filter="url(#filter0_ii_177_892)">
<mask id="path-2-inside-1_177_892" fill="white">
<path fill-rule="evenodd" clip-rule="evenodd" d="M230.488 68.8057C214.716 68.8057 201.93 81.5919 201.93 97.3644C201.93 113.137 214.716 125.923 230.488 125.923C236.891 125.923 242.804 123.815 247.567 120.256L251.008 123.697L250.953 123.751C249.866 124.839 250.123 126.861 251.545 128.282L272.022 148.759L275.179 151.917C275.588 152.323 276.045 152.633 276.515 152.844C277.682 153.367 278.927 153.275 279.703 152.5L285.789 146.413C286.686 145.288 286.381 143.398 285.036 142.063L281.878 138.896L281.877 138.896L281.876 138.895L261.4 118.418C259.978 117.006 257.956 116.749 256.878 117.836L256.826 117.888L253.38 114.443C256.939 109.679 259.047 103.767 259.047 97.3644C259.047 81.5919 246.261 68.8057 230.488 68.8057ZM209.929 97.3646C209.929 86.0097 219.135 76.8044 230.49 76.8044C241.844 76.8044 251.05 86.0097 251.05 97.3646C251.05 108.719 241.844 117.925 230.49 117.925C219.135 117.925 209.929 108.719 209.929 97.3646Z"/>
</mask>
<path fill-rule="evenodd" clip-rule="evenodd" d="M230.488 68.8057C214.716 68.8057 201.93 81.5919 201.93 97.3644C201.93 113.137 214.716 125.923 230.488 125.923C236.891 125.923 242.804 123.815 247.567 120.256L251.008 123.697L250.953 123.751C249.866 124.839 250.123 126.861 251.545 128.282L272.022 148.759L275.179 151.917C275.588 152.323 276.045 152.633 276.515 152.844C277.682 153.367 278.927 153.275 279.703 152.5L285.789 146.413C286.686 145.288 286.381 143.398 285.036 142.063L281.878 138.896L281.877 138.896L281.876 138.895L261.4 118.418C259.978 117.006 257.956 116.749 256.878 117.836L256.826 117.888L253.38 114.443C256.939 109.679 259.047 103.767 259.047 97.3644C259.047 81.5919 246.261 68.8057 230.488 68.8057ZM209.929 97.3646C209.929 86.0097 219.135 76.8044 230.49 76.8044C241.844 76.8044 251.05 86.0097 251.05 97.3646C251.05 108.719 241.844 117.925 230.49 117.925C219.135 117.925 209.929 108.719 209.929 97.3646Z" fill="url(#paint0_linear_177_892)"/>
<path d="M247.567 120.256L248.274 119.549L247.662 118.937L246.968 119.455L247.567 120.256ZM251.008 123.697L251.714 124.405L252.422 123.697L251.715 122.99L251.008 123.697ZM250.953 123.751L250.247 123.043L250.246 123.044L250.953 123.751ZM251.545 128.282L250.838 128.989L251.545 128.282ZM272.022 148.759L272.729 148.052L272.729 148.052L272.022 148.759ZM275.179 151.917L274.472 152.624L274.474 152.627L275.179 151.917ZM276.515 152.844L276.924 151.932L276.924 151.931L276.515 152.844ZM279.703 152.5L278.995 151.793L278.995 151.793L279.703 152.5ZM285.789 146.413L286.496 147.12L286.536 147.081L286.571 147.036L285.789 146.413ZM285.036 142.063L284.327 142.769L284.331 142.773L285.036 142.063ZM281.878 138.896L282.586 138.189L281.879 137.48L281.171 138.188L281.878 138.896ZM281.877 138.896L281.17 139.603L281.877 140.31L282.584 139.603L281.877 138.896ZM281.876 138.895L281.169 139.602L281.169 139.602L281.876 138.895ZM261.4 118.418L262.107 117.711L262.104 117.708L261.4 118.418ZM256.878 117.836L257.584 118.544L257.588 118.54L256.878 117.836ZM256.826 117.888L256.119 118.595L256.825 119.302L257.532 118.596L256.826 117.888ZM253.38 114.443L252.579 113.844L252.061 114.538L252.673 115.15L253.38 114.443ZM202.93 97.3644C202.93 82.1441 215.268 69.8057 230.488 69.8057V67.8057C214.164 67.8057 200.93 81.0396 200.93 97.3644H202.93ZM230.488 124.923C215.268 124.923 202.93 112.585 202.93 97.3644H200.93C200.93 113.689 214.164 126.923 230.488 126.923V124.923ZM246.968 119.455C242.372 122.889 236.668 124.923 230.488 124.923V126.923C237.114 126.923 243.235 124.741 248.165 121.057L246.968 119.455ZM251.715 122.99L248.274 119.549L246.86 120.963L250.3 124.404L251.715 122.99ZM251.66 124.458L251.714 124.405L250.301 122.989L250.247 123.043L251.66 124.458ZM252.252 127.575C251.038 126.362 251.123 124.995 251.661 124.458L250.246 123.044C248.608 124.682 249.208 127.36 250.838 128.989L252.252 127.575ZM272.729 148.052L252.252 127.575L250.838 128.989L271.315 149.467L272.729 148.052ZM275.886 151.21L272.729 148.052L271.315 149.466L274.472 152.624L275.886 151.21ZM276.924 151.931C276.567 151.771 276.209 151.531 275.884 151.208L274.474 152.627C274.966 153.115 275.523 153.495 276.106 153.757L276.924 151.931ZM278.995 151.793C278.604 152.185 277.844 152.344 276.924 151.932L276.106 153.756C277.519 154.39 279.251 154.366 280.41 153.207L278.995 151.793ZM285.082 145.706L278.995 151.793L280.41 153.207L286.496 147.12L285.082 145.706ZM284.331 142.773C285.462 143.895 285.471 145.208 285.007 145.79L286.571 147.036C287.901 145.368 287.3 142.901 285.74 141.353L284.331 142.773ZM281.17 139.602L284.327 142.769L285.744 141.357L282.586 138.189L281.17 139.602ZM282.584 139.603L282.585 139.603L281.171 138.188L281.17 138.189L282.584 139.603ZM281.169 139.602L281.17 139.603L282.584 138.189L282.583 138.188L281.169 139.602ZM260.693 119.125L281.169 139.602L282.583 138.188L262.107 117.711L260.693 119.125ZM257.588 118.54C257.863 118.263 258.303 118.107 258.883 118.182C259.464 118.256 260.126 118.563 260.695 119.127L262.104 117.708C261.251 116.861 260.192 116.333 259.137 116.198C258.081 116.063 256.971 116.322 256.168 117.132L257.588 118.54ZM257.532 118.596L257.584 118.544L256.171 117.128L256.119 117.18L257.532 118.596ZM252.673 115.15L256.119 118.595L257.533 117.181L254.087 113.735L252.673 115.15ZM258.047 97.3644C258.047 103.544 256.014 109.248 252.579 113.844L254.181 115.041C257.865 110.111 260.047 103.99 260.047 97.3644H258.047ZM230.488 69.8057C245.709 69.8057 258.047 82.1441 258.047 97.3644H260.047C260.047 81.0396 246.813 67.8057 230.488 67.8057V69.8057ZM230.49 75.8044C218.582 75.8044 208.929 85.4574 208.929 97.3646H210.929C210.929 86.562 219.687 77.8044 230.49 77.8044V75.8044ZM252.05 97.3646C252.05 85.4574 242.397 75.8044 230.49 75.8044V77.8044C241.292 77.8044 250.05 86.562 250.05 97.3646H252.05ZM230.49 118.925C242.397 118.925 252.05 109.272 252.05 97.3646H250.05C250.05 108.167 241.292 116.925 230.49 116.925V118.925ZM208.929 97.3646C208.929 109.272 218.582 118.925 230.49 118.925V116.925C219.687 116.925 210.929 108.167 210.929 97.3646H208.929Z" fill="#4EC275" mask="url(#path-2-inside-1_177_892)"/>
</g>
<defs>
<filter id="filter0_ii_177_892" x="201.93" y="64.8057" width="84.3701" height="95.3672" filterUnits="userSpaceOnUse" color-interpolation-filters="sRGB">
<feFlood flood-opacity="0" result="BackgroundImageFix"/>
<feBlend mode="normal" in="SourceGraphic" in2="BackgroundImageFix" result="shape"/>
<feColorMatrix in="SourceAlpha" type="matrix" values="0 0 0 0 0 0 0 0 0 0 0 0 0 0 0 0 0 0 127 0" result="hardAlpha"/>
<feOffset dy="7"/>
<feGaussianBlur stdDeviation="12.5"/>
<feComposite in2="hardAlpha" operator="arithmetic" k2="-1" k3="1"/>
<feColorMatrix type="matrix" values="0 0 0 0 0.419688 0 0 0 0 0.9875 0 0 0 0 0.61187 0 0 0 1 0"/>
<feBlend mode="normal" in2="shape" result="effect1_innerShadow_177_892"/>
<feColorMatrix in="SourceAlpha" type="matrix" values="0 0 0 0 0 0 0 0 0 0 0 0 0 0 0 0 0 0 127 0" result="hardAlpha"/>
<feOffset dy="-4"/>
<feGaussianBlur stdDeviation="8"/>
<feComposite in2="hardAlpha" operator="arithmetic" k2="-1" k3="1"/>
<feColorMatrix type="matrix" values="0 0 0 0 0.0340798 0 0 0 0 0.629167 0 0 0 0 0.235494 0 0 0 1 0"/>
<feBlend mode="normal" in2="effect1_innerShadow_177_892" result="effect2_innerShadow_177_892"/>
</filter>
<linearGradient id="paint0_linear_177_892" x1="244.115" y1="68.8057" x2="244.115" y2="153.173" gradientUnits="userSpaceOnUse">
<stop offset="0.00520833" stop-color="#C4F4D4"/>
<stop offset="0.109375" stop-color="#57D982"/>
<stop offset="0.880208" stop-color="#57D982"/>
<stop offset="1" stop-color="#399658"/>
</linearGradient>
</defs>
</svg>
