<svg width="401" height="184" viewBox="0 0 401 184" fill="none" xmlns="http://www.w3.org/2000/svg">
<mask id="path-1-outside-1_177_779" maskUnits="userSpaceOnUse" x="159.891" y="45.7676" width="123" height="106" fill="black">
<rect fill="white" x="159.891" y="45.7676" width="123" height="106"/>
</mask>
<path d="M234.388 146.378H233.888V146.878H234.388V146.378ZM234.388 131.916V131.416H233.888V131.916H234.388ZM242.647 146.378H243.147V145.878H242.647V146.378ZM242.647 150.738V151.238H243.147V150.738H242.647ZM197.954 150.738H197.454V151.238H197.954V150.738ZM197.954 146.378V145.878H197.454V146.378H197.954ZM208.395 146.378V146.878H208.895V146.378H208.395ZM208.395 131.916H208.895V131.416H208.395V131.916ZM174.891 46.2676C166.883 46.2676 160.391 52.7595 160.391 60.7676H161.391C161.391 53.3118 167.435 47.2676 174.891 47.2676V46.2676ZM267.891 46.2676H174.891V47.2676H267.891V46.2676ZM282.391 60.7676C282.391 52.7594 275.899 46.2676 267.891 46.2676V47.2676C275.347 47.2676 281.391 53.3117 281.391 60.7676H282.391ZM234.888 146.378V131.916H233.888V146.378H234.888ZM234.388 146.878H242.647V145.878H234.388V146.878ZM242.147 146.378V150.738H243.147V146.378H242.147ZM242.647 150.238H197.954V151.238H242.647V150.238ZM198.454 150.738V146.378H197.454V150.738H198.454ZM197.954 146.878H208.395V145.878H197.954V146.878ZM207.895 131.916V146.378H208.895V131.916H207.895ZM174.891 132.416H208.395V131.416H174.891V132.416ZM160.391 117.916C160.391 125.924 166.883 132.416 174.891 132.416V131.416C167.435 131.416 161.391 125.371 161.391 117.916H160.391ZM160.391 60.7676V117.916H161.391V60.7676H160.391ZM234.388 132.416H251.139V131.416H234.388V132.416ZM282.391 89.3416V60.7676H281.391V89.3416H282.391ZM282.391 103.629V89.3416H281.391V103.629H282.391Z" fill="#4EC275" mask="url(#path-1-outside-1_177_779)"/>
<rect x="99.8516" y="47.1802" width="52.3243" height="103.558" rx="3" stroke="#4EC275"/>
<circle cx="143.457" cy="104.955" r="2.18018" fill="#4EC275"/>
<circle cx="143.457" cy="111.496" r="1.09009" fill="#4EC275"/>
<rect x="236.697" y="130.928" width="14.9371" height="14.0259" fill="#11363A"/>
<rect x="277.792" y="120.252" width="6.29725" height="6.66056" transform="rotate(41.1581 277.792 120.252)" fill="#4EC275"/>
<g filter="url(#filter0_ii_177_779)">
<path d="M265.727 106.92C269.481 103.144 273.046 99.5808 276.588 95.9938C276.777 95.805 276.8 95.3095 276.706 95.0027C274.156 86.3421 279.256 77.422 288.086 75.4161C289.833 75.0149 291.698 75.1093 293.516 75.1329C293.988 75.1329 294.673 75.6049 294.838 76.0297C295.003 76.4544 294.767 77.2332 294.413 77.5872C292.383 79.711 290.281 81.7877 288.18 83.8407C287.755 84.2419 287.684 84.5958 287.85 85.1386C288.463 87.2861 289.03 89.4571 289.573 91.6281C289.691 92.1237 289.927 92.3597 290.423 92.4777C292.642 93.0204 294.862 93.5868 297.081 94.224C297.6 94.3655 297.884 94.224 298.238 93.8936C300.245 91.8641 302.275 89.8583 304.282 87.8288C304.778 87.3097 305.321 86.9085 306.076 87.1445C306.832 87.3804 306.973 88.0412 307.091 88.7492C308.225 96.7962 301.874 104.914 293.752 105.858C290.683 106.212 287.779 105.787 284.969 104.513C284.733 104.395 284.237 104.418 284.072 104.584C280.696 107.911 277.367 111.286 274.014 114.636C273.967 114.684 273.967 114.731 273.92 114.872C275.195 116.147 276.47 117.421 277.792 118.695C277.91 118.813 278.264 118.837 278.453 118.766C279.161 118.483 279.728 118.648 280.224 119.144C281.475 120.394 282.726 121.645 283.978 122.896C284.639 123.557 284.686 124.288 284.143 125.02C284.828 125.68 285.441 126.294 286.102 126.955C286.291 126.79 286.48 126.624 286.669 126.436C287.826 125.303 288.369 125.303 289.549 126.483C291.91 128.843 294.271 131.179 296.609 133.539C299.465 136.394 302.369 139.202 305.155 142.105C308.886 145.975 307.186 152.347 302.039 153.786C299.3 154.565 296.916 153.833 294.909 151.851C290.73 147.698 286.575 143.521 282.396 139.367C281.428 138.4 280.483 137.456 279.515 136.488C278.311 135.261 278.288 134.766 279.492 133.562C279.657 133.397 279.799 133.232 280.035 132.949C279.421 132.382 278.878 131.816 278.288 131.297C278.17 131.179 277.863 131.179 277.697 131.25C277.036 131.533 276.493 131.438 275.998 130.943C274.699 129.645 273.424 128.347 272.149 127.049C271.677 126.554 271.583 125.987 271.842 125.35C271.913 125.185 271.913 124.855 271.819 124.737C270.52 123.415 269.222 122.117 267.923 120.819C264.382 124.383 260.911 127.875 257.37 131.438C258.55 133.822 259.164 136.418 259.07 139.179C258.81 146.659 252.907 153.054 245.47 153.904C235.814 155.013 227.645 147.509 227.999 137.857C228.354 127.828 238.34 120.678 247.949 123.627C248.563 123.816 248.941 123.745 249.39 123.273C252.837 119.781 256.331 116.312 259.849 112.796C259.613 112.56 259.424 112.347 259.235 112.135C252.907 105.811 246.58 99.4628 240.229 93.162C239.899 92.8317 239.403 92.5957 238.954 92.4777C237.75 92.1709 236.522 92.0293 235.342 91.6989C234.87 91.5809 234.35 91.227 234.114 90.8258C232.155 87.64 230.242 84.4307 228.306 81.2213C227.834 80.4426 227.905 79.7818 228.542 79.1446C229.77 77.9175 230.998 76.6904 232.225 75.4633C232.957 74.7318 233.453 74.6846 234.35 75.2037C237.538 77.1152 240.725 79.0031 243.865 80.9617C244.29 81.2213 244.597 81.7641 244.786 82.2596C245.022 82.8732 245.164 83.5575 245.211 84.2419C245.305 86.0117 246.25 87.2153 247.477 88.4188C253.38 94.224 259.211 100.1 265.043 105.952C265.255 106.212 265.444 106.542 265.727 106.92ZM249.744 140.123C249.697 139.887 249.697 139.792 249.673 139.698C249.201 137.904 248.752 136.111 248.233 134.341C248.162 134.081 247.784 133.798 247.501 133.727C245.801 133.232 244.101 132.76 242.401 132.359C242.094 132.288 241.598 132.453 241.339 132.666C240.087 133.845 238.836 135.073 237.656 136.347C237.42 136.583 237.302 137.078 237.372 137.409C237.774 139.132 238.246 140.831 238.742 142.506C238.836 142.789 239.167 143.143 239.45 143.238C241.15 143.733 242.85 144.205 244.55 144.606C244.88 144.677 245.376 144.559 245.612 144.347C246.887 143.143 248.138 141.869 249.366 140.618C249.555 140.453 249.673 140.241 249.744 140.123ZM279.114 122.141C277.816 123.462 276.493 124.76 275.266 125.987C275.856 126.577 276.493 127.191 276.989 127.686C278.264 126.412 279.563 125.138 280.838 123.863C280.295 123.344 279.681 122.707 279.114 122.141Z" fill="url(#paint0_linear_177_779)"/>
</g>
<defs>
<filter id="filter0_ii_177_779" x="227.988" y="70.8574" width="79.2344" height="90.2344" filterUnits="userSpaceOnUse" color-interpolation-filters="sRGB">
<feFlood flood-opacity="0" result="BackgroundImageFix"/>
<feBlend mode="normal" in="SourceGraphic" in2="BackgroundImageFix" result="shape"/>
<feColorMatrix in="SourceAlpha" type="matrix" values="0 0 0 0 0 0 0 0 0 0 0 0 0 0 0 0 0 0 127 0" result="hardAlpha"/>
<feOffset dy="7"/>
<feGaussianBlur stdDeviation="12.5"/>
<feComposite in2="hardAlpha" operator="arithmetic" k2="-1" k3="1"/>
<feColorMatrix type="matrix" values="0 0 0 0 0.419688 0 0 0 0 0.9875 0 0 0 0 0.61187 0 0 0 1 0"/>
<feBlend mode="normal" in2="shape" result="effect1_innerShadow_177_779"/>
<feColorMatrix in="SourceAlpha" type="matrix" values="0 0 0 0 0 0 0 0 0 0 0 0 0 0 0 0 0 0 127 0" result="hardAlpha"/>
<feOffset dy="-4"/>
<feGaussianBlur stdDeviation="8"/>
<feComposite in2="hardAlpha" operator="arithmetic" k2="-1" k3="1"/>
<feColorMatrix type="matrix" values="0 0 0 0 0.0340798 0 0 0 0 0.629167 0 0 0 0 0.235494 0 0 0 1 0"/>
<feBlend mode="normal" in2="effect1_innerShadow_177_779" result="effect2_innerShadow_177_779"/>
</filter>
<linearGradient id="paint0_linear_177_779" x1="267.605" y1="74.8574" x2="267.605" y2="154.092" gradientUnits="userSpaceOnUse">
<stop offset="0.00520833" stop-color="#C4F4D4"/>
<stop offset="0.109375" stop-color="#57D982"/>
<stop offset="0.880208" stop-color="#57D982"/>
<stop offset="1" stop-color="#399658"/>
</linearGradient>
</defs>
</svg>
